<?xml version="1.0" encoding="utf-8"?>
<svg xmlns="http://www.w3.org/2000/svg" fill="none" height="20" viewBox="0 0 20 20" width="20">
  <path d="M9.785 0h.147c.347.031.63.167.847.409l.435.484a1.218 1.218 0 0 0 1.425.323 9.914 9.914 0 0 0 .424-.187c.336-.157.62-.221.988-.126a1.179 1.179 0 0 1 .443.227c.202.161.343.375.424.644.045.15.089.305.133.467.046.171.097.308.155.412.197.355.573.617.994.639l.695.036a1.194 1.194 0 0 1 .592.186c.439.281.652.78.568 1.298a20.644 20.644 0 0 1-.083.478 1.74 1.74 0 0 0-.037.42c.028.44.259.819.648 1.031l.538.294c.23.127.422.298.535.519.209.408.213.807.011 1.198a2.036 2.036 0 0 1-.156.247c-.143.199-.323.429-.411.625a1.23 1.23 0 0 0-.017.997c.035.089.093.19.175.303l.284.391c.104.141.176.264.216.367a1.244 1.244 0 0 1-.302 1.369 2.002 2.002 0 0 1-.408.273c-.156.085-.31.173-.463.264a1.249 1.249 0 0 0-.588 1.025c-.006.203.049.439.091.644.043.212.064.375.064.489a1.258 1.258 0 0 1-.882 1.202c-.089.03-.208.048-.355.054-.203.008-.408.02-.618.037a1.267 1.267 0 0 0-.993.666 1.624 1.624 0 0 0-.116.314c-.072.268-.137.583-.245.801a1.236 1.236 0 0 1-1.498.627 8.041 8.041 0 0 1-.463-.188 2.187 2.187 0 0 0-.458-.158 1.226 1.226 0 0 0-1.014.251 2.257 2.257 0 0 0-.29.301l-.268.319a1.245 1.245 0 0 1-.902.459h-.133a1.24 1.24 0 0 1-.862-.42 96.786 96.786 0 0 1-.41-.459 1.242 1.242 0 0 0-1.444-.329 12.44 12.44 0 0 0-.397.172 2.232 2.232 0 0 1-.411.149 1.2 1.2 0 0 1-.983-.189 1.201 1.201 0 0 1-.369-.411 1.935 1.935 0 0 1-.163-.438c-.054-.204-.107-.424-.193-.616a1.256 1.256 0 0 0-.737-.683 1.111 1.111 0 0 0-.284-.059 22.867 22.867 0 0 0-.511-.025 2.205 2.205 0 0 1-.46-.053 1.246 1.246 0 0 1-.923-1.126 2.21 2.21 0 0 1 .047-.506l.064-.366c.061-.369 0-.707-.225-1.015a1.252 1.252 0 0 0-.402-.351 19.591 19.591 0 0 0-.471-.258 1.68 1.68 0 0 1-.359-.241 1.265 1.265 0 0 1-.302-1.416c.043-.104.12-.23.231-.378.095-.127.188-.256.278-.388a1.268 1.268 0 0 0 .124-1.224 1.877 1.877 0 0 0-.233-.378 13.045 13.045 0 0 1-.289-.398 1.26 1.26 0 0 1 .158-1.647c.076-.074.198-.157.366-.249a17.496 17.496 0 0 0 .434-.246 1.27 1.27 0 0 0 .655-1.08 2.489 2.489 0 0 0-.064-.489 8.318 8.318 0 0 1-.085-.486 1.208 1.208 0 0 1 .26-.918 1.211 1.211 0 0 1 .634-.426c.121-.034.291-.056.51-.064.114-.004.231-.01.349-.016.482-.027.883-.273 1.094-.703.05-.101.101-.252.153-.454l.087-.329a1.639 1.639 0 0 1 .101-.288c.136-.28.343-.481.621-.601a1.235 1.235 0 0 1 1.01.001c.186.079.375.157.567.234.072.029.146.052.221.068.068.015.144.023.227.023.384.003.702-.139.956-.427.122-.138.261-.299.419-.481A1.27 1.27 0 0 1 9.785 0Zm3.375 4.791a6.114 6.114 0 0 0-.856-.439 6.128 6.128 0 0 0-2.427-.476 6.156 6.156 0 0 0-3.661 1.232 6.256 6.256 0 0 0-2.04 2.613 6.165 6.165 0 0 0-.473 2.784 6.274 6.274 0 0 0 3.528 5.314 6.136 6.136 0 0 0 2.151.591c.487.042.989.015 1.474-.053a4.933 4.933 0 0 0 .646-.132c1.406-.392 2.541-1.165 3.406-2.32.699-.934 1.106-2.007 1.219-3.219.016-.169.023-.339.021-.512-.011-.992-.214-1.901-.612-2.73a6.245 6.245 0 0 0-2.376-2.652Z" fill="#FA8D8D"/>
  <path d="M17.073 10.214a7.149 7.149 0 0 1-7.15 7.149 7.149 7.149 0 0 1-7.149-7.149 7.149 7.149 0 0 1 14.299 0z" fill="#4747BE"/>
  <path clip-rule="evenodd" d="M13.97 6.919a1.021 1.021 0 0 1 .091 1.442l-4.459 5.057a1.021 1.021 0 0 1-1.451.082l-2.284-2.067a1.021 1.021 0 1 1 1.37-1.515l1.517 1.373 3.775-4.281a1.021 1.021 0 0 1 1.442-.091Z" fill="#fff" fill-rule="evenodd"/>
</svg>