<?xml version="1.0" standalone="no"?>
<!DOCTYPE svg PUBLIC "-//W3C//DTD SVG 1.1//EN" "http://www.w3.org/Graphics/SVG/1.1/DTD/svg11.dtd" >
<svg xmlns="http://www.w3.org/2000/svg" xmlns:xlink="http://www.w3.org/1999/xlink" version="1.1">
<metadata>
Created by FontForge 20170731 at Thu May 12 01:30:20 2022
 By Aleksey,,,
</metadata>
<defs>
<font id="CharliesFunFont-Regular" horiz-adv-x="250" >
  <font-face 
    font-family="Charlies Fun Font"
    font-weight="400"
    font-stretch="normal"
    units-per-em="1000"
    panose-1="2 0 5 3 0 0 0 0 0 0"
    ascent="800"
    descent="-200"
    x-height="478"
    cap-height="758"
    bbox="33 -194 839 801"
    underline-thickness="50"
    underline-position="-150"
    unicode-range="U+000D-00A0"
  />
<missing-glyph horiz-adv-x="364" 
d="M33 0v666h265v-666h-265zM66 33h199v600h-199v-600z" />
    <glyph glyph-name=".notdef" horiz-adv-x="364" 
d="M33 0v666h265v-666h-265zM66 33h199v600h-199v-600z" />
    <glyph glyph-name=".null" 
 />
    <glyph glyph-name=".null" 
 />
    <glyph glyph-name="nonmarkingreturn" horiz-adv-x="333" 
 />
    <glyph glyph-name="CR" unicode="&#xd;" 
 />
    <glyph glyph-name="space" unicode=" " 
 />
    <glyph glyph-name="exclam" unicode="!" horiz-adv-x="335" 
d="M95 742q10 2 14 2q12 0 33 -12q37 -24 45 -43t8 -80q0 -114 8 -123q2 -2 6.5 -25.5t6.5 -26.5q4 -4 10.5 -113t14.5 -118q4 -5 4 -10q0 -3 -2 -14t-3 -22q-1 -33 -9 -39q-6 -6 -6 -10q0 -8 -11 -17.5t-19 -9.5q-12 0 -21 -7q-10 -7 -29 -7q-20 0 -28 8q-28 30 -28 68
q1 60 1 148q0 115 -4 118q-3 2 -8 32t-6 32q-4 6 -6 87t-7 90q-5 10 -5 29q0 16 4 16q5 0 5 10q0 11 10 22.5t22 14.5zM142 -11q0 23 49 23q28 0 43 -9q45 -24 45 -70q0 -10 -3 -19q-5 -15 -34 -34q-6 -4 -15 -10.5t-15 -11t-9 -6.5q-9 -8 -33 -8q-25 0 -37 8q-17 11 -22 21
t-5 34q0 31 11 44q8 10 13 24q4 9 8 9t4 5z" />
    <glyph glyph-name="parenleft" unicode="(" horiz-adv-x="358" 
d="M61 389q0 24 42 79.5t55 55.5q6 0 18 10q15 11 23 13q3 1 12 1q19 0 40 -8t21 -17q0 -4 4 -4q8 0 15 -9.5t7 -20.5q0 -17 -12.5 -30t-31.5 -16q-43 -6 -55 -32q-7 -17 -12 -19q-4 -2 -6 -35q-2 -30 -6 -54q-5 -20 -1 -28q5 -10 5 -47q0 -38 9 -47q10 -8 12 -8q5 0 12 -9
t18 -9q9 0 25.5 -8.5t16.5 -13.5q0 -4 4 -4q5 0 13.5 -7.5t8.5 -12.5t5 -7q1 0 1 -1q0 -4 -12.5 -17.5t-20.5 -17.5q-14 -7 -31 -22q-9 -7 -24 -7q-17 0 -22 -5q-2 -2 -7 -2q-11 0 -29 7t-27 15q-6 5 -18 14q-8 5 -28.5 36t-24.5 47q-5 18 -5 78q0 43 3 62q1 4 1 15
q0 20 -3 38q-2 12 -2 27q0 9 2 9q5 2 5 11z" />
    <glyph glyph-name="parenright" unicode=")" horiz-adv-x="426" 
d="M110 566q14 3 28 3q74 0 132 -49q4 -3 15.5 -13t16.5 -14q18 -14 18 -20t4 -6q5 0 7 -9q3 -8 13 -20q10 -10 13 -34q4 -23 8 -29q5 -5 5 -52t-5 -48q-5 -2 -5 -9q0 -8 -7 -20q-2 -2 -5 -12t-6 -18t-5 -8q-4 0 -4 -7t-6 -9q-7 -2 -9 -12q-3 -13 -22 -39.5t-32 -36.5
q-28 -25 -43 -30q-11 -2 -11 -7q0 -4 -11 -4q-10 0 -13 11q-2 11 -7 11q-4 0 -2 11q2 14 -4 23q-10 20 -10 48q0 11 3 12q5 3 5 12q0 18 36 52q17 17 17 20q0 5 7 17q9 15 9 67q0 37 -6 39t-6 8q0 5 -14.5 18t-27.5 19q-9 5 -59 9q-45 3 -47 9q-2 5 -8 5t-6 8t-6 10
q-4 1 -4 18q0 29 8 42q17 25 46 34z" />
    <glyph glyph-name="comma" unicode="," horiz-adv-x="294" 
d="M141 256q18 18 29 18q1 0 4.5 -0.5t6.5 -0.5q22 -3 34 -16q14 -16 19 -28.5t5 -35.5v-10q-1 -37 -12 -51q-10 -13 -14 -28q-2 -15 -7 -15q-3 0 -3 -7q0 -9 -18 -34t-30 -33t-25 -8q-8 0 -14 1q-23 2 -23 7q0 3 -10 6t-19 22t-9 37q0 2 0.5 4t0.5 4q5 35 30 64
q27 32 35 74q2 12 20 30z" />
    <glyph glyph-name="period" unicode="." horiz-adv-x="301" 
d="M124 191q12 2 48 2q55 -1 64 -27q4 -9 7 -11q5 -3 5 -55t-5 -54t-5 -10q0 -9 -17 -26t-26 -17q-11 0 -12 -4q-3 -4 -15 -4q-17 0 -39.5 6.5t-29.5 13.5q-6 6 -11 6q-4 0 -12.5 8.5t-8.5 13.5q0 39 -9 46q-4 4 -4 19q0 16 4 20q5 2 5 15q0 12 8 22q9 11 9 16q0 7 44 20z
" />
    <glyph glyph-name="slash" unicode="/" horiz-adv-x="742" 
d="M517 673q0 2 17.5 20.5t17.5 20.5q0 4 12 29t16 30q5 5 26 5q43 0 43 -10q0 -6 24 -30q13 -13 13 -32q0 -13 -3 -19t-17 -20q-22 -22 -29 -34q-7 -13 -10 -13t-14 -19.5t-13 -19.5q-4 0 -4 -7q0 -8 -6 -9q-4 -1 -9 -12.5t-7 -11.5q-4 0 -4 -4q0 -2 -15.5 -27.5
t-15.5 -27.5t-13 -15t-13 -17q0 -5 -4 -5q-5 0 -7 -8q-6 -11 -20 -27q-17 -19 -17 -25q0 -4 -10 -16q-32 -34 -63 -94q-14 -26 -23 -35q-11 -11 -13 -26t-5 -15q-2 0 -6.5 -15.5t-7.5 -15.5t-6.5 -11t-5.5 -11q-4 0 -9 -12q-4 -10 -13 -21q-12 -14 -24 -56q-5 -16 -8 -16
t-6 -14q-3 -12 -17 -41.5t-18 -32.5q-3 -1 -3 -19q0 -13 -7 -23.5t-31 -34.5q-19 -19 -27 -19q-7 0 -12 -5q-6 -6 -35 -6q-26 0 -35.5 6t-12.5 25q-2 16 -6 18t-4 12.5t4 13.5q5 2 5 16q0 15 6 23q5 9 9 27q2 12 5.5 17t14.5 10q12 5 23.5 22t11.5 29q0 7 3 8q1 1 19.5 35
t21.5 34q5 0 7 8q2 3 6 8t6.5 10t2.5 11q0 7 6.5 16t6.5 17q0 24 23 45q12 10 12 15q0 6 6 10q5 4 10 19.5t8 19.5q6 5 6 13q0 5 18 25q10 10 17.5 23t11.5 18q6 4 6 12q0 6 4 6q5 0 5 5q0 3 22 26.5t22 25.5q0 5 8 13q31 33 31 43q0 3 6.5 7.5t6.5 9.5q0 6 5 6q4 0 4 7
q0 2 9 19.5t23.5 41t25.5 34.5q12 12 12 17z" />
    <glyph glyph-name="zero" unicode="0" horiz-adv-x="793" 
d="M237 396q0 -5 -4.5 -10.5t-4.5 -12.5q0 -11 -6 -22q-15 -27 -19 -172q-1 -20 -1 -53q0 -95 19 -123q11 -17 24 -17q6 0 17 3q23 7 86 10q25 1 40.5 6t31.5 7q28 2 35 9t19 7t14 6q1 6 20 14q17 8 27 30q12 23 20 35q23 35 29 69q8 51 15 57q7 5 7 12q0 4 6.5 21.5
t6.5 25.5q0 6 -4 9q-5 3 -7 27q-4 33 -23 90q-5 17 -5 19q0 5 5 12q5 8 5 13l-4 18q-4 10 -4 27q0 7 -8.5 30t-12.5 24q-4 2 -11 17q-12 26 -34 34q-9 4 -15 9q-6 6 -23 6q-24 0 -30 -9q-2 -4 -22 -6q-23 -2 -33 -8q-12 -7 -19 -7q-5 0 -5 -4q0 -3 -11 -9t-11 -13
q0 -10 -9 -12t-9 -6q0 -2 -17.5 -22t-17.5 -22q0 -4 -6 -10t-13 -25t-7 -29q0 -7 -9 -15t-9 -13t-6.5 -13.5t-6.5 -13.5zM728 175q0 -4 -8.5 -22t-8.5 -23q0 -8 -4 -12q-3 -1 -7.5 -26t-8.5 -26q-7 -2 -7 -13t-10 -21q-11 -11 -11 -14q0 -8 -58.5 -60.5t-67.5 -52.5
q-2 0 -15 -13q-15 -15 -28.5 -21t-38.5 -6q-8 0 -38 2h-6q-38 0 -43 -7q-4 -7 -45 -10q-1 0 -19 -2.5t-28 -2.5q-11 0 -17 3q-10 6 -31 6q-16 1 -25.5 6.5t-19.5 7.5q-14 3 -35 21t-21 27q0 6 -6 11q-7 5 -9 18q-4 13 -7 13q-4 0 -4 20q0 23 -6 38q-5 13 -9 52q-4 42 -19 53
q-5 3 -5 25t8 23q11 3 11 36q0 15 -3 27q-6 18 -4 23q0 6 -7 6q-13 0 -13 23q0 2 0.5 6.5t0.5 7.5q5 68 25 109q18 34 20 50q2 14 13 25q8 8 15 19t15.5 27.5t12.5 23.5q23 42 36 42q5 0 8 10q2 9 33 38q30 28 30 33q0 4 10.5 14t15.5 10t5 4q0 2 23 15q20 11 26 24
q17 44 32 51q16 7 60 7q25 0 28 -4q3 -5 13 -5q8 0 17 -6.5t16 -6.5q10 0 31.5 -13t36.5 -27q13 -13 22 -15q9 -3 29.5 -25.5t20.5 -29.5q0 -8 4 -8q3 0 7 -13q1 -10 14 -25q9 -9 13 -23q2 -11 5 -18q7 -16 19 -108q4 -31 11 -44q6 -11 6 -26t5 -28q5 -17 5 -104t-5 -89
t-5 -7z" />
    <glyph glyph-name="one" unicode="1" horiz-adv-x="687" 
d="M315 748q0 4 38 4q31 0 42 -5.5t22 -27.5q4 -8 4 -32q0 -35 -6 -43q-5 -8 -5 -22q0 -16 -6 -24q-6 -7 -6 -81v-97q0 -120 5 -123q4 -2 4 -53t2 -61q3 -10 21 -18t34 -8h6q17 2 19 -6q2 -9 9 -9q2 0 14 -3q5 -1 22 -4t31 -6.5t20 -6.5q11 -6 23 -6q6 0 9.5 -6.5t6 -17
t3.5 -13.5q4 -9 4 -25q-1 -13 -12 -32.5t-17 -19.5q-4 0 -18 -7q-16 -8 -29 -5q-2 0 -23.5 3.5t-40 7t-19.5 6.5t-20 3q-16 -1 -29 6q-10 6 -72 9q-61 2 -104 9q-42 7 -70 7q-24 0 -46 7.5t-25 16.5q-4 9 -8 12t-4 39q0 68 8 84q7 12 12 12q3 0 13 8q9 8 15 -1q6 -6 6 -14
q0 -6 4 -6q2 0 6 -13q3 -13 11 -13t30 -8q19 -7 51 -9l29 -1l7 16q5 10 5 32q0 24 -2 44q-4 61 -7 76q-3 16 2 16q3 0 3 27q0 38 -4 42q-4 2 -4 20q0 15 -6 15q-4 0 -15 -10t-14 -10q-4 0 -4 -5q0 -6 -17.5 -20.5t-27.5 -16.5q-12 -3 -12 -7t-7 -4q-6 0 -6 -6q0 -10 -40 -14
q-3 0 -7 -0.5t-5 -0.5q-13 0 -25 9q-13 9 -20 18q-17 22 -17 53q0 14 6 17q7 2 7 14q0 13 7.5 23t17.5 10q12 0 13 9q1 5 5 7t7 0t3 -7q0 -8 7 -11.5t15 1.5q7 5 14 5q5 0 17 10t12 14q0 3 10 13q9 8 20.5 33t18.5 33q13 15 13 21q0 8 8 12q8 5 19.5 27.5t14.5 41.5
q3 21 13 32q11 11 11 14z" />
    <glyph glyph-name="two" unicode="2" horiz-adv-x="830" 
d="M280 121q-22 8 -29 8q-6 0 -11 -5t-5 -10q0 -8 12 -20q8 -9 15.5 -11.5t32.5 -4.5q11 -1 25 -1q11 0 11 3q0 4 -13 10q-13 5 -16 14q-3 10 -22 17zM246 432q-2 0 -13 -13.5t-14 -13.5q-6 0 -6 -5q0 -7 -19.5 -19.5t-34.5 -15.5q-38 -7 -42 -7q-11 0 -24 12q-16 16 -16 25
t-5 11q-6 2 -6 24q0 38 36 44q13 2 26.5 14.5t16.5 25.5q1 3 1 11q0 7 -2 21q-1 5 -1 15q0 23 6.5 48t15.5 34q4 4 9.5 10.5t9 10t10 7.5t15.5 6t21.5 7t23.5 7.5t26 2.5q22 0 32 5q8 4 26 4t22 -4t24 -4q22 0 22 4q0 5 6 5q7 0 7 -4q0 -3 21 -7t22 -7q1 -4 10 -4q8 0 16 -4
q7 -4 27 -9q54 -14 62 -23q8 -8 12 -8q6 0 6 -4q0 -5 11 -7q24 -7 24 -20q0 -4 5 -7q4 -2 16 -25.5t15 -24.5q1 -1 5.5 -16t6.5 -17q1 -1 6.5 -44t7.5 -44t1.5 -3.5t-2.5 -4.5q-2 -4 -4.5 -28.5t-4 -51t-2.5 -30.5q-9 -71 -14 -72q-4 -3 -8 -20q-3 -17 -9 -28q-6 -9 -6 -17
q0 -4 -5 -6q-2 -1 -5 -11.5t-3 -18.5q0 -9 5 -9t18 -11q11 -11 37 -14q28 -4 30 -6q5 -4 19 -7q14 -4 20.5 -15.5t11.5 -41.5q3 -15 3 -22t-4 -10q-5 -3 -11.5 -15.5t-6.5 -18.5t-6 -6t-8 -8q-2 -9 -18 -14t-29 2q-14 7 -27 7q-11 0 -15 4q-1 3 -23.5 8t-24.5 6
q-2 2 -24.5 8.5t-24.5 9.5q-2 4 -15 4t-13 4q0 3 -11 7h-3q-10 0 -31.5 -9.5t-26.5 -15.5q-1 -4 -15 -4q-8 0 -14.5 -6.5t-14.5 -6.5q-10 0 -20 -4q-8 -5 -44 -5q-31 0 -35 4q-5 5 -14 0q-8 -4 -8 0q0 1 -18.5 4.5t-38 6.5t-20.5 3q-4 4 -11 4q-26 -4 -26 6q0 5 -20 12.5
t-35 7.5q-10 0 -10 7t-8 7t-15.5 8t-7.5 18q0 13 -7 17q-6 3 -8 17q0 13 -4 17q-3 3 -3 13.5t4 12.5q5 2 5 13q0 29 40 64q18 17 33 29q13 11 29 15q8 2 15 5t10 4.5t10.5 3t18.5 2.5q23 2 31 7q4 2 12 2q24 0 66.5 -10t50.5 -19q2 -2 35 -20t36 -20q8 -8 26 -8t32 14
q16 18 24 33q11 18 13 18q4 0 6 29q4 31 10 37t6 25q0 17 5 22t5 32q0 24 -4 35q0 1 -2.5 9t-5 17t-6 18.5t-6 15.5t-4.5 6q-6 0 -9 12q-3 10 -20.5 21t-28.5 11q-7 0 -9 4q-2 2 -26.5 7t-27.5 7q-6 6 -15 2h-5q-12 0 -32.5 6t-23.5 10q-5 5 -32 5q-26 0 -36.5 -6.5
t-10.5 -22.5q0 -12 -4 -12q-5 0 -2 -14q2 -14 2 -22q0 -25 -7 -47t-17 -22z" />
    <glyph glyph-name="three" unicode="3" horiz-adv-x="645" 
d="M115 654q0 7 7 23t7 22q0 9 6 15q7 7 7 11t9 11q8 6 8 14q0 3 17 11q17 7 71 19q17 4 43 4q32 0 38 -6q5 -4 35 -7q16 -1 22.5 -2.5t13 -4.5t16.5 -5q19 -4 27 -10q7 -6 23 -6q15 0 33 -13q20 -13 26 -13q7 0 15.5 -8t11.5 -17q4 -11 10 -12q6 -2 6 -9q0 -3 6.5 -18
t6.5 -20q0 -6 5 -11t5 -55q0 -39 -4 -42q-1 -1 -3.5 -8t-5.5 -13.5t-5 -6.5q-5 0 -5 -8q0 -10 -9 -17q-8 -6 -8 -12q0 -4 -11 -15q-38 -39 -38 -50q0 -8 11 -14q12 -8 14 -18t7 -10q4 0 11 -16q8 -18 8 -64q0 -32 -5 -39q-7 -9 -13 -28q-8 -23 -22 -41q-15 -19 -15 -21
q0 -4 -21 -25t-26 -21q-6 0 -6 -4q0 -2 -11 -6t-11 -7q0 -5 -6 -5q-7 0 -10 -6q-9 -15 -67 -22q-33 -4 -38 -7q-4 -2 -21 -2q-64 0 -86 8q-1 0 -7 1t-12.5 2t-13 2.5t-11 3t-4.5 3.5q0 4 -7 4t-9 8q-2 9 -13 14q-9 5 -13 14q-2 8 -7 8q-3 0 -3 6q0 5 -14 17q-13 10 -16 31
q-2 19 -6 27q-2 4 -2 9q0 13 7.5 30t14.5 19q11 4 12 6q5 7 41 7q17 0 18 -3q2 -4 10 -2h3q10 0 18.5 -11.5t8.5 -22.5q0 -5 -4 -11q-3 -3 -3 -8q0 -13 23 -20q20 -6 24 -10q6 -6 13 0q1 1 13.5 4t24 6t11.5 5q0 4 16 4q15 0 26 9t20 9q8 0 30 23t22 32q0 4 -17 12
q-18 7 -20 15q-2 7 -15 15t-21 8q-9 0 -12 3q-7 7 -71 8q-21 1 -51 1q-13 1 -32 21t-22 36q-2 9 -2 26q0 38 27 52q18 10 122 12q45 0 57 7q10 5 21 5q10 0 10 5q0 4 6 4q9 0 28.5 12t32.5 25q16 17 16 28q0 1 -0.5 5t-0.5 7q-2 21 -17 37q-11 11 -19 14.5t-31 6.5
q-77 12 -83 18q-5 5 -36 5q-28 0 -28 -4q0 -3 -8 -7q-16 -5 -16 -34q0 -20 10 -31q4 -6 3.5 -9t-7.5 -15q-5 -8 -12.5 -16.5t-13.5 -20.5q-11 -29 -39 -39q-8 -2 -11 -2q-7 0 -24 13q-20 16 -24 36q-2 19 -8 21q-4 3 -4 22q0 35 7 44t7 18q0 8 4 13t4 14z" />
    <glyph glyph-name="four" unicode="4" horiz-adv-x="651" 
d="M84 766q12 3 22 3q12 0 14 -4t18 -6q15 -3 26 -13t11 -20t11 -21q8 -7 10 -18.5t4 -65.5q2 -72 6 -78q1 -1 1 -27q0 -13 -0.5 -30.5t-0.5 -30v-13.5v-11q0 -10 -3 -28l-3 -19l17 -2h9q9 0 24.5 3.5t28.5 3.5q23 0 23 4t36 10.5t61 8.5q32 2 36 6q3 3 9.5 59.5t6.5 84.5
q0 23 4 23q1 0 4 25.5t6 51.5t4 26q2 1 6 23q2 18 11 32q8 10 24 10h11q26 0 44 -9q14 -6 16.5 -11.5t6.5 -39.5q0 -7 -7 -38q-27 -123 -27 -223v-32l16 -8q16 -9 21 -18t5 -28q0 -22 -9 -34q-9 -11 -9 -17q0 -4 -11 -17q-7 -8 -9 -20t-5 -68q-2 -62 -2 -73v-9q2 -7 -3 -12
q-6 -6 0 -9q4 -3 4 -90t-4 -87q-3 0 -6 -10q-2 -9 -16 -25q-24 -26 -47 -26q-15 0 -27 12q-31 33 -31 48q0 10 -5 12q-4 3 -4 19q0 21 5 26q6 6 7 96q0 28 0.5 77.5t0.5 58.5q0 46 -2 49q-3 5 -36 5q-27 0 -30 -4q-1 -2 -57 -7t-57 -6q-5 -5 -37 -5q-24 0 -59 -5
q-18 -2 -19 -2q-9 0 -26 10q-19 12 -19 20q0 6 -8 28q-8 21 -8 146q-1 213 -8 233q-6 16 -6 48q0 26 5 31q2 2 5.5 7.5t6 9t6.5 6.5t8 4z" />
    <glyph glyph-name="five" unicode="5" horiz-adv-x="702" 
d="M555 239q0 -12 -6.5 -25t-6.5 -27q0 -23 -6 -33q-7 -12 -7 -19q0 -4 -8 -20t-13 -21q-2 -1 -12 -19q-8 -17 -23 -25q-14 -7 -22 -15q-7 -7 -14 -7t-20 -9q-28 -17 -49.5 -23.5t-76.5 -16.5q-29 -5 -29 -9q0 -1 -9.5 -4t-19 -5.5t-10.5 -3.5q-7 -5 -34 -5t-34 5
q-5 5 -15 7q-16 5 -41 30t-28 38q-4 14 -7 14q-4 0 -6 28q-2 16 -2 19q0 11 9 25q11 16 25 16t38 2h5q16 0 27 -6.5t29 -25.5q19 -19 28 -19q3 0 7 4q2 4 23 6q24 4 43 14q22 11 30 11t10 6q2 7 25 16q22 9 31 28q7 18 14 30q6 10 6 18q0 5 8 13q7 7 7 43q0 28 -5 29
q-5 2 -5 7t-11 15t-16 10q-8 0 -24 9q-16 8 -29 8q-3 0 -23 -2q-35 -3 -46 -11q-10 -8 -16 -8t-6 -4q0 -5 -14 -13q-15 -9 -16 -19q-2 -13 -6 -13t-19 -13q-17 -14 -38 -14q-26 0 -29 2q-8 5 -20 30.5t-14 41.5q-2 12 -2 40q0 50 7 63q6 12 6 42q0 79 -19 110q-4 6 -4 40
q0 61 22 83q13 13 35 13h3l1 -1q6 -3 30 -3q30 0 47 -6q23 -5 30 -1q9 5 14 0t14 -5q10 0 17 6q11 7 41 7q32 0 32 4t10 4q6 0 21 6.5t22 6.5t12 -5q4 -4 11 1q6 6 56 6q48 2 51 5q2 2 15 2q3 0 9 -0.5t10 -0.5q30 -2 48 -15q23 -16 23 -26q0 -5 -5 -15q-7 -14 -7 -23
q0 -8 -20 -28l-20 -20l-36 3q-36 3 -65 3q-46 0 -102 -9q-22 -4 -51.5 -13t-37.5 -15q-5 -3 -13 -1q-2 1 -8 1q-35 0 -41 -10q-1 -1 -16 -10l-13 -7l-1 -54v-25q0 -19 1 -23.5t6 -4.5q9 0 14 6q5 7 11 7t14 4q7 4 50.5 9.5t67.5 5.5h4q21 -1 46 -7t30 -11q6 -6 12 -6t6 -4
t6 -4q4 0 13 -9t12 -9q5 0 19.5 -15.5t18.5 -25.5q5 -12 10 -12q4 0 4 -10q0 -9 5 -14q6 -6 6 -58q0 -42 -5 -44q-6 -1 -6 -18z" />
    <glyph glyph-name="six" unicode="6" horiz-adv-x="675" 
d="M457 233q-16 15 -35 15q-29 0 -56 -30q-14 -14 -18 -14q-8 0 -37 -29t-32 -40q-2 -10 -7 -10q-4 0 -4 -7q0 -8 -6 -9q-7 -3 -7 -13t-6 -14q-7 -4 -13.5 -20t-6.5 -27q0 -14 11 -29t11 -20t6 -11t13 -6q2 0 6 2q7 5 28 -2q23 -7 28 -7q10 0 21 9t41 41q27 29 35 29
q6 0 23 30t33 69q6 14 6 28q0 35 -34 65zM89 458q2 0 6 15.5t7 15.5q1 0 3.5 7.5t5.5 15.5t4 9q2 1 6 21q4 22 9 29q7 12 7 19q0 8 5 11q7 5 14 19q7 13 20.5 26.5t20.5 13.5q5 0 5 4t5 4q4 0 21 13q12 9 29 19q40 20 59 24q16 2 18 6q1 1 22 9q24 7 45 7q12 0 12 -3
q0 -2 17.5 -6t17.5 -7q0 -5 6 -5t6 -10q0 -9 -6 -33q-6 -21 -11.5 -29.5t-21.5 -20.5q-17 -12 -31 -12q-8 0 -8 5q0 4 -8 4q-6 0 -12 -4.5t-12 -4.5q-19 0 -59 -29.5t-40 -43.5q0 -4 -6.5 -15.5t-11.5 -16.5q-4 -4 -18 -35t-19 -46q-7 -21 -9 -53q-4 -32 -7 -35
q-3 -4 -6.5 -38.5t-3.5 -58.5q0 -3 0.5 -8t0.5 -7q3 -22 10 -22q9 0 55 52q14 17 44 37q28 19 28 20q0 2 24 14t24 14t7.5 4.5t16 5t9.5 3.5q7 5 46 5h17q20 0 32 -3.5t43 -18.5q9 -5 16.5 -10.5t19.5 -10.5q10 -4 14.5 -8.5t8.5 -11.5t10 -13q8 -8 13 -23.5t7 -19.5
q5 -12 5 -67q0 -41 -2.5 -54.5t-15.5 -38.5q-6 -10 -6 -17q0 -4 -15.5 -19t-15.5 -20q0 -10 -5 -15q-3 -3 -25 -29q-39 -45 -60 -55q-15 -7 -15 -12q0 -3 -6.5 -8t-6.5 -8q0 -4 -5 -11q-1 -1 -8.5 -10.5t-12.5 -15.5q-14 -18 -35 -26q-7 -2 -21.5 -9t-27 -11t-25.5 -4
q-18 0 -32 -7q-13 -5 -31 -5q-30 0 -47 10q-24 12 -39.5 32.5t-33.5 63.5q-2 5 -9 19t-11 26t-4 22q0 13 -3 15q-5 2 -12 27.5t-7 42.5q0 15 -2.5 29t-6.5 30t-6 26q-4 22 -8 25q-7 5 -7 94q0 43 3 61q5 24 9 59q4 24 11.5 47t11.5 23z" />
    <glyph glyph-name="seven" unicode="7" horiz-adv-x="722" 
d="M492 261q0 -4 -9 -24t-9 -23q0 -6 -4 -6q-5 0 -5 -31q0 -30 -6 -34q-6 -3 -10.5 -33t-8 -58t-6.5 -28q-4 0 -9 -12q-18 -41 -62 -41q-13 0 -17.5 2.5t-9.5 12.5q-7 12 -11 16q-1 1 -13 23q-8 15 -8 23q0 6 3 20q6 27 11 54q6 34 8 38q3 6 5 28q2 23 9 39q8 17 6 22
q0 6 3 15q1 2 1 6q0 12 -22 21q-21 7 -38 76q-3 12 -3 17q0 7 10 20q3 3 7.5 9t6.5 8t5 5.5t4.5 4.5t4 3t5 2t6 0.5t7.5 0.5q3 0 10 -0.5t13 -0.5l42 -2l13 15q14 16 14 20q0 5 8 15q9 11 9 25q0 11 -2 13t-14 2q-17 0 -47 -7q-26 -6 -73 -6h-7q-26 0 -38.5 4t-60.5 27
q-9 4 -10 3q-11 -13 -11 -34q0 -11 -11 -24.5t-29 -22.5q-11 -6 -23 -6q-20 0 -35 15q-20 22 -20 64q0 12 4 15q4 2 4 15v26q0 38 -2 47.5t-11 23.5q-11 18 -11 30q0 8 1 14q2 19 10 31.5t18 12.5q9 0 11 4q3 4 17 4q20 0 38 -6q19 -7 38 -26q20 -20 21 -20q2 0 16 -10
q50 -37 84 -37h4q59 6 80 18q12 7 21 7q11 0 30.5 11t32.5 24q19 17 39 24q23 9 25 13q2 5 14 10t21 5q7 0 10 -4q2 -4 9 -4q4 0 16 -4q55 -25 55 -76q0 -26 -4 -28t-4 -9q0 -15 -29 -65q-19 -35 -19 -47q0 -10 -6 -11q-7 -3 -7 -7t-9.5 -24.5t-12.5 -22.5q-5 -3 -7 -26
q-1 -7 -1 -15q0 -10 12 -18t16 -22v-6q0 -35 -21 -63q-8 -11 -26.5 -22.5t-27.5 -11.5q-7 0 -17.5 -9.5t-10.5 -16.5z" />
    <glyph glyph-name="eight" unicode="8" horiz-adv-x="577" 
d="M293 107q3 0 17 11t16 11q4 0 4 10t11 21q6 6 12 20t8 17q4 4 7 22t5.5 39.5t3.5 25.5q3 16 -3 16q-5 0 -37.5 -32t-32.5 -37q0 -4 -9 -11t-16 -9q-6 -2 -14 -14.5t-15 -14.5q-11 -4 -29 -23t-24 -32q-5 -12 -5 -23q0 -23 14 -23q3 0 9 3t30 7.5t31 8.5q12 7 17 7z
M281 623q-6 4 -26 6q-6 1 -17 1q-48 0 -63 -38q-6 -18 -6 -46q0 -20 4 -28q3 -7 12 -7q1 0 19 2q24 2 32 7q6 4 40 6q33 3 42 10q6 5 7.5 13.5t-3.5 11.5t-7 17q-3 21 -34 45zM223 751q12 2 36 2q56 0 67 -13q4 -6 22 -6q31 0 55 -24q12 -12 18 -13q6 -2 9.5 -8t6 -15
t4.5 -13q5 -10 5 -96t7 -89q8 -3 24 -23t22 -63q2 -11 8.5 -30.5t6.5 -40.5q0 -28 5 -28t0 -8q-3 -7 -7 -55q-2 -48 -9 -66q-14 -36 -22 -53q-5 -12 -7 -25q-2 -21 -38 -41q-14 -7 -18 -11q-5 -5 -38.5 -20t-39.5 -15q-10 0 -10 -4q0 -2 -10 -4t-21 -4t-12 -3q-2 -4 -20 -13
q-17 -7 -25 -15q-6 -5 -29 -5q-29 0 -47 7q-20 7 -20 11t-11 6q-11 4 -16 13q-5 11 -9 11q-3 0 -3 7q0 6 -6 10q-26 17 -26 102q0 52 14 80q7 13 40 47.5t38 34.5t10 11t14 14q8 2 8 6t5 4q11 0 50 38q24 24 24 32q0 4 -4 4t-6 -1q-21 -4 -66 -5q-34 -2 -37 -2q-19 0 -37 9
q-35 18 -35 30q0 4 -6 9q-7 5 -9 18q-4 13 -6 13q-4 0 -10.5 30.5t-6.5 51.5v6q6 62 16 72q5 5 5 13q0 11 6 22q7 12 7 17q0 8 21.5 31.5t29.5 23.5q6 0 18 7q30 14 65 19z" />
    <glyph glyph-name="nine" unicode="9" horiz-adv-x="608" 
d="M295 332q-13 -7 -21 0q-7 5 -17 5q-12 0 -33 -6q-17 -4 -17 -12q0 -6 14.5 -11t37.5 -5h4q32 0 36 4q1 3 10 7q8 4 8 15q0 5 -0.5 7.5t-3.5 2.5t-6.5 -1.5t-11.5 -5.5zM299 364q0 2 -2 2t-2 -2q0 -3 2 -3t2 3zM269 364q4 3 1 8t-5 2q-1 -2 -1 -6q0 -6 5 -4zM352 491
q-32 9 -72 9h-20q-40 0 -40 -7q0 -4 -12 -6q-23 -5 -23 -55q0 -20 6 -28t21 -8q17 0 17 -4q0 -3 6 -10t9 -7q2 0 4 8q1 5 9.5 7t39.5 4q73 6 97 32q11 13 11 22q0 12 -15 24t-38 19zM308 133q2 0 6 11t7 11q5 0 5 13t-10 13q-7 0 -25 -6t-45 -6q-29 0 -53.5 6t-24.5 15
q0 4 -11 6q-10 2 -29 21q-17 17 -23 17q-3 0 -3 9t-4 9q-3 0 -9.5 18t-8.5 19q-4 1 -4 13q0 9 -5 14q-3 3 -7 33t-6 33q-3 5 0 17q4 15 6 50q1 24 6.5 39.5t6.5 35.5q2 26 7 37q5 13 14 29q11 23 38 44t49 24q1 0 65 3t66 5t27 2h16q26 -1 35.5 -3.5t23.5 -12.5
q19 -14 28 -14q7 0 11 -9q5 -7 28 -19q42 -20 42 -55q0 -14 7 -16q7 -3 7 -11q0 -9 3 -9q10 0 10 -100q0 -45 -4 -62q-10 -50 -21 -57q-19 -13 -19 -39q0 -16 -4 -20q-4 -6 -11 -31q-10 -32 -15 -42.5t-18 -24.5q-56 -62 -65 -76q-6 -9 -17 -20q-11 -9 -11 -12q0 -5 -6 -11
q-37 -41 -37 -46q0 -3 -15 -18t-18 -15t-26 -22.5t-27 -30.5q-6 -11 -33 -23q-7 -4 -13.5 -8.5t-16.5 -9.5q-14 -7 -26 -7q-23 0 -39 36q-7 14 -7 28t9 32q5 10 5 15q0 10 24 18q15 4 24 13q13 11 15 11q3 0 3 7t6 7q7 0 21 18q23 29 56 64q18 20 18 21q0 3 9.5 11t12.5 8z
" />
    <glyph glyph-name="colon" unicode=":" horiz-adv-x="258" 
d="M89 652q2 1 10 1q21 0 41 -9q10 -6 23 -4q11 3 26 -9l15 -12l-3 -33q-3 -32 -14 -48q-10 -12 -10 -20q0 -6 -18 -20t-26 -14q-30 0 -65 65q-11 22 -11 52q0 15 5 15t7 11q7 20 20 25zM68 107q4 11 26.5 25t38.5 14q5 0 23.5 -15.5t22.5 -24.5q10 -19 10 -57q0 -25 -5 -39
q-8 -24 -24.5 -39.5t-33.5 -15.5q-10 0 -20 7q-13 9 -15 9q-3 0 -13.5 12.5t-10.5 16.5q0 5 -5 7q-8 3 -8 50q0 32 5 37q8 8 9 13z" />
    <glyph glyph-name="semicolon" unicode=";" horiz-adv-x="333" 
d="M159 682q18 2 26 2q48 0 68 -20q13 -13 15 -42q1 -7 1 -17q0 -16 -9 -33q-11 -22 -14 -22q-2 0 -18 -14q-14 -14 -24 -20q-8 -5 -24 -5t-21 5q-9 7 -17.5 26.5t-8.5 32.5q0 15 -4 21q-6 6 -6 34v14q1 19 8 26.5t28 11.5zM242 18q0 -4 -8.5 -17.5t-8.5 -18.5q0 -10 -7 -13
q-6 -1 -6 -6t-12 -17q-11 -11 -23 -27q-11 -14 -37 -18q-18 -3 -29 -3q-17 0 -25.5 8.5t-20.5 33.5q-9 20 -9 39q0 38 24 43q11 2 21 19.5t10 30.5q0 7 -4 10q-3 2 -7 33q-1 9 -1 22q0 17 5 31q7 22 12 22q4 0 12.5 10t8.5 15t12 17q11 10 21 9q8 -3 34 -5q24 -4 30 -9
q4 -6 10 -6q5 0 12.5 -8.5t7.5 -13.5q0 -7 7 -19q9 -23 9 -54q0 -20 -5 -22q-6 -3 -6 -18q0 -20 -1 -24q-2 -9 -10.5 -23.5t-11.5 -14.5q-4 0 -4 -6z" />
    <glyph glyph-name="question" unicode="?" horiz-adv-x="566" 
d="M308 506q0 4 15.5 28t15.5 27q0 5 5 7q6 2 6 26v24h-23q-24 0 -33 -10q-8 -10 -15 -10q-15 0 -53 -34.5t-43 -51.5q-4 -13 -8 -19q-7 -9 -7 -15q-1 -7 -17 -17q-15 -7 -17 -12q-1 -4 -14 -4q-18 0 -22 6q-5 7 -11 7q-4 0 -19 28q-12 24 -12 30q0 3 2 7q4 7 4 15
q-1 6 2.5 20t6.5 14t7.5 6t9.5 16t6 11q9 12 11 21q3 7 6 7q6 0 8 8q5 10 36 43q36 40 102 75q19 10 60 10q81 0 109 -23q10 -7 19 -7q7 0 20.5 -13t13.5 -19q0 -4 9 -23t9 -24q0 -9 7 -14q6 -6 6 -27q0 -31 -9 -49q-8 -16 -8 -25q0 -5 -7 -13t-7 -14q0 -7 -9.5 -23
t-10.5 -20q-3 -6 -21 -24q-22 -22 -30 -43.5t-10 -62.5q-4 -71 -15 -75q-4 -1 -4 -6q0 -7 -19.5 -19t-30.5 -13q-16 0 -27 8q-10 6 -21.5 21.5t-11.5 21.5q0 4 -4 4q-5 0 -5 10q0 11 -6 22q-6 12 -6 21q0 10 6 30q23 81 46 116q8 14 8 20zM298 143q17 5 28 5h4
q44 -8 57.5 -24.5t13.5 -62.5q0 -24 -2 -32t-11 -18q-12 -14 -16 -14q-5 0 -17 -14q-11 -13 -27 -13q-15 0 -20 5q-6 6 -26 15q-19 9 -27 31t-8 37q0 16 6 26q10 18 15 31q9 20 30 28z" />
    <glyph glyph-name="A" unicode="A" horiz-adv-x="692" 
d="M320 410q0 -7 -6.5 -13t-6.5 -12q0 -7 1.5 -8.5t10.5 -1.5q12 0 22 1q32 2 47 6l12 3l-2 30q-2 31 -7 34q-2 1 -8 39t-9 39h-2q-5 0 -11 -9t-6 -18q0 -11 -4 -11q-5 0 -5 -8q0 -4 -13 -35t-13 -36zM184 361q0 5 9 25.5t9 26.5q0 10 4 10t4 5q0 12 25 57q6 9 6 20
q0 9 5 12q4 1 4 14q0 11 7 13q6 2 8 18q4 20 9 28q7 10 7 21q0 9 4 11t6 27t7 30q9 11 9 49q0 9 13 22q13 15 31 16q17 2 35 2q13 0 22 -8q31 -29 31 -46q0 -10 3 -10t7 -31q1 -22 7 -38.5t8 -31.5q2 -13 11 -58.5t11 -67.5q4 -34 8 -38q5 -5 9.5 -23t6.5 -22q21 -46 21 -55
q0 -8 4 -10q4 -1 4 -12q0 -7 10 -26.5t14 -20.5q3 -2 3 -6q0 -3 8.5 -23t8.5 -23q0 -5 7 -17q6 -10 6 -22q0 -6 7 -14.5t7 -13.5t6.5 -21.5t6.5 -22.5q0 -13 7 -29q5 -11 5 -32q0 -39 -14 -51q-10 -8 -14 -19q-2 -9 -7 -9q-4 0 -4 -6q0 -5 -7.5 -8.5t-17.5 -3.5
q-7 0 -23.5 19t-22.5 34q-8 23 -10 50q-2 31 -9 45q-6 11 -6 21q0 7 -4 7q-2 0 -7 32.5t-7 32.5q-4 0 -4 11q0 8 -7 16.5t-8 14.5q-2 8 -4.5 9.5t-10.5 -0.5q-10 -1 -13 -7q-1 -4 -9 -4q-12 0 -20 7q-11 7 -67 8h-27q-58 0 -58 -15q0 -8 -6 -13q-7 -5 -9 -18q-4 -13 -7 -13
q-2 0 -5 -8.5t-6 -18.5t-4 -12q-7 -12 -7 -17t-3 -5q-5 0 -10 -12q-12 -32 -18 -32q-4 0 -4 -11q0 -12 -6 -16q-7 -5 -7 -11q0 -8 -15.5 -29.5t-31.5 -23.5q-3 -1 -8 -1q-10 0 -24 17q-17 19 -17 26q0 9 -5 11q-11 7 0 28q1 1 19.5 39.5t20.5 40.5q1 1 13.5 24t13.5 24t5 19
t10 24t6 17q0 10 4 10q5 0 5 11t9 27q8 14 8 29q0 8 4.5 13.5t4.5 11.5z" />
    <glyph glyph-name="B" unicode="B" horiz-adv-x="602" 
d="M429 278q1 11 -1 13.5t-13 2.5h-7q-22 0 -39 -7q-48 -20 -152 -22h-17v-50q0 -50 4 -53q5 -2 5 -13q0 -9 8 -17q8 -7 29 -14t34 -7q11 0 42.5 14t31.5 19q0 4 12.5 18t22.5 22q36 26 40 94zM417 681q-25 9 -73 9q-16 0 -23 -1q-36 -3 -49 -3q-19 0 -30 -4.5t-22 -5.5
q-12 -1 -16.5 -5t-11.5 -16q-4 -5 -4 -50q0 -44 4 -49t2 -10q-1 -1 -0.5 -9.5t2.5 -16.5q3 -12 3 -18t-5 -14q-7 -12 -7 -15q0 -6 18 -6q15 0 25 1q14 1 30 2t25 1.5t17 0.5q15 0 48 -3q28 -2 33 -2q15 0 21 4q20 18 22 57q6 94 15 96q5 2 5 20q0 15 -6 22t-23 15zM368 6
q-4 0 -24 -8.5t-24 -8.5q-6 0 -6 -4q0 -10 -56 -10q-32 0 -34 -4q-1 -4 -10 -4q-5 0 -18 -14.5t-13 -20.5q0 -5 -25 -5q-24 0 -24 5t-8 7q-13 5 -29 35q-6 13 -13 20q-5 2 -5 103q0 102 -5 112q-6 13 -1 21q5 9 2 16q-4 8 -4 10q0 4 -5.5 57.5t-6.5 54.5q-3 2 -3 13
q0 15 4 18t4 13.5t-4 10.5t-4 8.5t4 9.5q5 2 7 45q2 44 6 52q4 7 4 25q0 30 -10 50q-16 36 -16 60q0 29 22 43q17 13 17 16q0 5 11 14.5t16 9.5q6 0 31.5 12.5t36.5 21.5q8 7 19.5 8.5t57.5 1.5h56q172 0 172 -14q0 -4 8 -4q10 0 25 -16t21 -32q7 -19 7 -77q-2 -56 -6 -62
t1 -11t5 -23q0 -14 -4 -17q-3 -2 -7 -28q-4 -29 -15 -52q-16 -33 -16 -43q0 -9 9 -16q11 -9 11 -22q0 -12 5 -14q5 -1 10 -44t5 -76q0 -20 -2 -23q-1 -2 -14 -39.5t-19 -42.5q-6 -6 -12.5 -20.5t-13.5 -21.5q-9 -10 -13 -23q-2 -11 -7 -11q-3 0 -14 -11q-13 -13 -36.5 -27.5
t-29.5 -14.5t-10.5 -4.5t-9.5 -4.5z" />
    <glyph glyph-name="C" unicode="C" horiz-adv-x="730" 
d="M405 765q4 0 13.5 6.5t15.5 6.5q7 0 12.5 4.5t12.5 2.5q8 -4 8 1q0 4 17 6q6 1 19 1q39 0 45 -8q5 -5 18.5 -10.5t16.5 -7.5q8 -6 16 -6q7 0 21.5 -7.5t22.5 -15.5q9 -8 16 -25.5t7 -29.5q0 -15 -6 -15q-2 0 -13 -16q-19 -31 -31 -31q-4 0 -5 4q-3 5 -21 7q-21 2 -28 9
t-14 4q-10 -2 -14 2q-3 3 -14 3t-18 -1q-20 -2 -50 -11t-33 -13q-3 -3 -26 -10.5t-31 -7.5q-9 0 -9 -6t-12 -11q-11 -4 -45.5 -38t-34.5 -41q0 -5 -14.5 -16t-21.5 -11q-3 0 -7 -13t-6 -13t-6 -18q-2 -11 -14 -42.5t-13 -48.5q-4 -27 -6 -27q-8 0 -2 -11q1 -2 4 -5
q7 -7 7 -22q0 -16 14 -34q26 -33 40 -33q8 0 18 -9t18 -9t14 -4.5t13 -4.5q6 0 22 -5.5t24 -5.5q5 0 7 1q8 2 37 2h19q11 -1 34 -1q64 0 68 9q2 5 13 5q9 0 22 6.5t23 6.5q16 0 23 9q6 8 15 8q7 0 13 4q3 3 25 7l20 3v-18q0 -18 7 -20q3 -1 5 -5t1 -7t-4 -3t-6.5 -15.5
t-5.5 -15.5t-14 -17.5t-14 -17.5q-4 0 -4 -6q0 -10 -18.5 -22t-45.5 -20q-34 -9 -45 -9q-9 0 -9 -3q0 -5 -39 -5q-23 -1 -38.5 -4t-41.5 -3q-77 2 -157 24.5t-80 42.5q0 5 -6 5q-8 0 -10 8q-6 14 -20 20q-7 2 -7 9t-4 7q-3 0 -11 10t-16.5 21.5t-9.5 12.5q-16 18 -16 85
q0 34 10 81.5t19 56.5q6 6 6 12t4 6t6 26q4 29 13 47q3 6 9 19t9.5 19t9 15t12 16t15.5 14q62 49 62 57q0 3 22 15t22 14q0 1 13 5t13 8t8 12q6 6 48 27.5t49 21.5z" />
    <glyph glyph-name="D" unicode="D" horiz-adv-x="610" 
d="M320 618q-16 12 -60 12q-34 0 -46 -9q-7 -5 -8.5 -16.5t-2.5 -68.5v-36q0 -46 4 -54q6 -12 6 -21q0 -11 6 -17q7 -7 8 -62q1 -56 6 -58q3 -2 8.5 -40.5t8.5 -40.5q5 -3 5 -26q0 -32 2 -39.5t10 -9.5q10 -3 27 10q16 11 35 15q15 3 28.5 9.5t13.5 10.5q0 3 8 5q7 1 15 28
q7 24 12 24q4 0 4 6q0 4 8 18q6 12 8 57q2 44 7 53q5 10 0 18q-1 2 -1 8q0 4 1 13.5t1 14.5q0 8 -2 10q-5 10 -5 36q0 48 -27 78q-12 12 -12 17q0 3 -10.5 14.5t-15.5 13.5q-8 4 -42 27zM343 15q-4 0 -24.5 -9t-25.5 -9q-10 0 -13 -4q-1 -4 -10.5 -3t-11.5 -2q-3 -3 -17 -3
q-26 0 -64.5 8t-38.5 14q0 2 -8 4q-7 2 -16 20q-5 8 -8.5 13.5t-6 10t-6.5 14.5q-8 17 -3 23q6 8 6 101q0 85 -5 90t-5 41t-7 46q-8 10 -3 20q6 13 1 19q-2 3 -5.5 34t-6.5 35q-4 8 -4 22q-7 88 -7 175q0 11 4 30t7 23q5 5 11 14q9 10 35 10q6 0 50 -2h19q26 0 44 2
q32 7 45 7q9 0 12 -3q6 -6 12 -1q10 7 29 7q28 0 64 -12q6 -2 20.5 -6t18.5 -5q20 -6 42 -22t22 -24q0 -6 19 -25q30 -31 35 -58q4 -17 11 -28q6 -10 3 -15t-5 -39q0 -11 -2 -37t-2 -30q-1 -10 -1 -24q0 -13 3 -16q4 -4 4 -16t-4 -15t-4 -21q0 -23 5 -28q2 -2 2 -5
q0 -4 -3.5 -14t-3.5 -13v-1l1 -2l1 -2v-2q0 -16 -10 -66t-14 -54q-1 -1 -7 -13t-12.5 -24t-7.5 -12q-4 0 -4 -6q0 -7 -4 -7q-3 0 -20.5 -15.5t-21.5 -15.5t-30 -24t-28 -24q-3 0 -14 -9q-10 -8 -18 -8t-8 -5q0 -4 -6 -4z" />
    <glyph glyph-name="E" unicode="E" horiz-adv-x="690" 
d="M275 554q-7 0 -21.5 7t-21.5 7q-11 0 -18 5q-5 3 -9 3q-12 0 -16 -62q-3 -39 -3 -64q0 -31 4 -37q2 -2 67 -4q61 0 70 -7q8 -6 12 -6q7 0 19.5 -10t12.5 -16q0 -8 7 -15t-1 -29q-7 -22 -11 -22t-4 -6t-25.5 -21.5t-35.5 -15.5q-3 0 -12.5 -3.5t-13.5 -3.5q-2 0 -6 2
q-6 4 -30 6q-3 0 -6.5 0.5t-5.5 0.5q-14 0 -18.5 -8t-4.5 -31q0 -22 4 -54.5t7 -35.5t130 -3h126l23 -12q22 -12 36 -12q25 0 45 -40q7 -16 7 -38q0 -18 -5 -28q-5 -9 -16.5 -19.5t-16.5 -10.5q-6 0 -11 -7q-5 -5 -25 -5q-18 0 -31 1q-66 2 -108 10q-67 12 -137 17
q-64 4 -97 20q-12 6 -24 28t-12 38q0 19 -7 29t-2 15q4 4 4 21q0 16 -4 20q-5 5 1 17q2 4 2 10q0 4 -2 10.5t-2 9.5q0 5 2 9q3 6 3 13t-3 19q-8 33 -10 206q0 74 -4 92q-4 17 0 19q3 2 5 25q0 2 0.5 6.5t0.5 5.5q0 11 -7 23q-8 14 -8 22q0 9 -4 13q-8 8 -8 38q0 29 8 29
q4 0 11 7t16 7q8 0 8 4q0 5 12 5q10 0 20 -5q9 -5 36 -7t44 -7q34 -9 159 -9q35 0 46 1q8 1 27 1q43 0 84 -9q14 -3 29 -23t32 -21q30 -3 35 -27q4 -13 7 -13q4 0 4 -6q0 -7 -7 -20.5t-11 -13.5t-4 -6q0 -8 -13.5 -19.5t-29.5 -15.5q-24 -7 -191 -12h-8q-66 0 -78 12
q-5 6 -17 6z" />
    <glyph glyph-name="F" unicode="F" horiz-adv-x="509" 
d="M91 755q9 3 30 3q30 0 43 -4q12 -3 54 -3q60 0 78 5q20 5 43 5q29 0 52.5 -5.5t23.5 -13.5q0 -4 6 -4q5 0 15 -8.5t10 -12.5t5 -6q2 0 2 -4t-2.5 -11t-6.5 -14l-3 -7q-3 -10 -15 -16q-10 -3 -12 -8t-51 -5q-17 0 -45 2q-23 3 -48 3q-10 0 -62 -2q-40 -3 -40 -25
q0 -7 -7 -14q-6 -8 -9 -56l-2 -49h28q25 0 50.5 -4.5t26.5 -8.5q2 -5 13 -5t26 -7.5t15 -12.5q0 -1 9 -15q7 -8 7 -18q0 -18 -21.5 -35.5t-32.5 -17.5q-10 0 -10 -4q0 -5 -7 1q-5 5 -37 5q-9 0 -26 -1t-21 -1h-19v-37q0 -38 -6 -39q-5 -1 0 -11q6 -10 6 -47q0 -41 -7 -54
q-8 -17 -5 -29q0 -1 0.5 -3.5t0.5 -4.5q0 -10 -7 -31q-9 -25 -9 -34t-4 -9t-6 -9q-3 -9 -20 -9q-13 0 -17 3.5t-10 17.5q-10 21 -11 64q0 43 -5 53q-3 9 3 20q6 10 6 110q0 118 -7 132q-5 10 1 27q3 11 3 17q0 5 -3 14q-2 5 -2 11q0 4 3 11.5t3 14.5q0 27 2 48q2 22 2 26
q0 14 -5 24q-6 11 -6 36q1 20 12.5 38.5t27.5 23.5z" />
    <glyph glyph-name="G" unicode="G" horiz-adv-x="669" 
d="M107 546q0 4 11 14.5t11 13.5t14.5 18t34 34t26.5 28q20 25 25 30q8 9 37.5 25t38.5 16q7 0 10 5q1 2 40.5 7t40.5 7q2 4 8 -1q4 -3 30 -3q34 0 37 4q1 3 16 3q19 0 31 -4q6 -2 16 -4t16.5 -3.5t14 -5t12.5 -8.5q12 -12 12 -24q0 -2 -0.5 -6t-0.5 -7q-2 -23 -6 -25t-4 -7
q0 -6 -12 -15q-11 -10 -39 -10q-27 0 -29 -5t-54 -7q-50 -2 -69 -8q-11 -5 -21 -5q-2 0 -4 0.5t-4 0.5q-10 0 -22 -6q-9 -4 -35 -17q-14 -7 -36.5 -26t-22.5 -24q0 -4 -4 -4q-5 0 -5 -5q0 -4 -9 -15q-26 -27 -29 -40q-4 -13 -7 -18t-3 -50q0 -83 5 -86q4 -2 4 -15
q0 -11 11 -33t22 -32q10 -10 13 -10q1 0 22.5 -15.5t24.5 -15.5q4 0 24 -9q4 -2 15.5 -7.5t19 -9t18 -6.5t18.5 -3q29 0 59 28q8 7 17 22.5t9 22.5q0 5 7 12q12 14 12 54q0 8 -2 14q-4 10 -12 12q-3 1 -15 1q-40 0 -50 -8q-5 -3 -14 -3q-30 0 -55 15q-17 10 -25 24
q-7 13 -10 13q-2 0 -3 5.5t0.5 11.5t3.5 7q4 1 4 15q0 11 15 28q29 35 29 39l17 8q10 5 25 5q13 0 18 -5q4 -4 11 -4q9 0 18 -6q10 -5 32 -9q21 -4 22 -7q3 -4 24 -4q18 0 18 4t28 4q47 0 47 -27q0 -11 7 -20q8 -11 8 -58q0 -53 -9 -70q-7 -17 -12 -19q-4 -2 -2 -11
q0 -8 -8 -24.5t-9 -18.5q-2 -11 -8 -15q-5 -3 -16 -21t-14 -29q-2 -13 -10 -13q-6 0 -6 -6q0 -4 -11 -9t-11 -11q0 -8 -26.5 -34.5t-40.5 -31.5q-20 -8 -21 -8q-10 -5 -46 -5q-32 0 -36 4q-2 4 -13 4t-46 16t-35 21q0 2 -16 6t-18 9q-1 6 -9 6q-6 0 -6 4q0 5 -6 5t-16 12
q-7 8 -19.5 15.5t-20.5 20.5q-11 18 -14 18q-1 0 -5 17q-4 18 -10 23q-6 4 -6 15q0 12 -4 13q-5 2 -5 12q0 12 -8 28q-9 16 -9 45q0 27 -5 29q-4 3 -4 33q0 45 6 59q14 32 18 55q4 14 7 14q2 0 6 13q2 13 10 15q6 1 6 9z" />
    <glyph glyph-name="H" unicode="H" horiz-adv-x="594" 
d="M470 748q3 2 14.5 0.5t16.5 -1.5q13 0 13 -6q0 -7 6 -10q7 -4 16 -23q8 -15 8 -30q0 -10 -1 -17q-1 -15 -5 -29t-4 -23q0 -3 2 -21q4 -30 4 -158q0 -42 0.5 -100.5t0.5 -60.5q1 -26 1 -90q0 -124 -4 -127t-10 -14q-10 -19 -28 -32q-13 -8 -30 -8q-9 0 -9 4q0 5 -12 10
q-8 4 -13 12t-19 37q-5 10 -5 51q0 42 5 47q9 11 9 85q0 17 -2 37l-3 29l-49 3q-24 2 -62 7.5t-68 5.5q-21 0 -34 -1q-3 0 -4.5 -1.5t-3 -12t-1.5 -27v-52.5q0 -92 -6 -98q-5 -5 -5 -19t-15 -34l-14 -19h-63l-42 42l1 30q0 28 5 33t5 15q0 12 8 26q9 16 9 44t5 30q4 3 4 18
q0 19 -5 22q-3 2 -3 18q0 3 0.5 10.5t0.5 12.5q0 4 0.5 15.5t0.5 18.5q0 23 -2 53q-2 28 -2 34q0 17 5 30q6 15 1 30q-5 14 0 21q5 5 8 61q2 49 8.5 64.5t25.5 18.5q17 3 25 3q15 0 25 -15q10 -16 14 -17t6 -80q1 -66 5.5 -89.5t16.5 -23.5q9 0 20 -9q10 -7 25 -7q17 0 31 1
q45 2 54 6q7 5 34 5q24 0 32 4q14 9 14 125q0 35 -3 59q-3 23 2 23t5 13q0 9 12 23t23 18z" />
    <glyph glyph-name="I" unicode="I" horiz-adv-x="634" 
d="M346 754q8 4 25 4q32 0 46 -7q7 -4 24 -4q23 0 32 6q9 5 12 0q3 -4 32 -8q19 -1 25.5 -4t14.5 -13q13 -13 13 -24q0 -10 4 -10q5 0 5 -9q0 -8 -5 -8q-4 0 -4 -12q0 -14 -10.5 -32t-23.5 -26q-15 -9 -46 -9h-24q-6 0 -14.5 0.5t-12.5 0.5q-24 0 -31.5 -5.5t-7.5 -24.5
q0 -17 1 -29q2 -42 4 -44q2 -3 2 -37q0 -66 -4 -70q-5 -5 -5 -34q0 -30 5 -33q4 -1 4 -47v-44l13 2q14 4 16 -2q5 -5 21 -3h43q18 -1 22 -3t10 -16q9 -18 9 -50q0 -16 -4 -19t-11 -15q-13 -25 -43.5 -30.5t-154.5 -5.5q-113 0 -132 7q-22 8 -40 8t-38 7t-28 15t-14 11
q-5 3 -12 22.5t-7 28.5q0 3 1 4q2 1 7 14t11 13q13 1 29 7.5t16 10.5q0 3 21 3q36 0 43 -5q4 -4 25 -6q2 0 5.5 -0.5t4.5 -0.5q12 0 27 11q10 8 12 12.5t0 12.5q-1 4 -1 17q0 20 5 70.5t5 65.5q2 47 7 85q2 20 2 25q0 14 -5.5 27t-7.5 24l-5 17l-28 1h-11q-18 0 -20 -3
q-3 -3 -58 -5q-9 0 -20.5 -0.5t-14.5 -0.5q-23 0 -30 10q-23 26 -23 65q0 22 12 34q13 11 18 11t7 5q1 4 22.5 7.5t22.5 6.5t17 -1q13 -4 50 -4q31 0 34 4q2 5 15 5q12 0 22 7q11 7 37 9q29 2 35 8z" />
    <glyph glyph-name="J" unicode="J" horiz-adv-x="564" 
d="M328 522q0 8 -6.5 24t-6.5 22q0 10 -11 26q-11 17 -26 17t-18 -5q-2 -3 -14 -3q-13 0 -23 1q-81 6 -102.5 10.5t-21.5 15.5q0 6 -4 8q-4 1 -7.5 18t-3.5 31q0 7 2 13q3 9 17.5 21.5t21.5 12.5q8 0 20 5q8 2 12 2q10 0 28 -7q33 -13 76 -13q14 0 14 3q0 5 26 7q52 5 73 11
q9 3 35 3q59 0 66 -7q4 -4 12 -4t15 -12.5t7 -26.5q0 -13 -6 -28t-12 -19q-4 -4 -4 -11q0 -8 -10 -13.5t-12 -7.5q-5 -5 -18 -5q-9 0 -16 1l-28 3l3 -16q4 -18 9 -28q6 -9 6 -20q0 -8 4 -14q6 -6 11 -51.5t5 -81.5q0 -26 -3 -30q-4 -7 1 -10q5 -4 0 -14q-6 -9 -8 -39
q-1 -19 -6 -32.5t-7 -24.5q-4 -20 -9 -29q-6 -7 -6 -16q0 -8 -4 -8t-6 -8q-3 -9 -18.5 -24.5t-24.5 -18.5q-7 -3 -19.5 -13.5t-18.5 -12.5q-10 -2 -10 -7q0 -3 -10 -6q-11 -2 -24 -15q-14 -14 -22 -14q-9 0 -11 -5t-33 -7h-11q-20 0 -31 8q-10 8 -16 8q-5 0 -5 4q0 5 -13 9
q-14 5 -37.5 28t-23.5 31q0 13 -5 24q-5 12 -5 19q0 6 5 34q5 26 8.5 34t17.5 21q19 18 32.5 24t35.5 6q16 0 20.5 -2t6.5 -10q1 -3 1 -11q0 -9 -2 -27q-3 -19 -3 -31q0 -21 18 -28q12 -5 15 -5q5 0 23 6q23 8 26 14q4 6 12 6q6 0 15 11t10 12q6 3 6 10q0 6 4 6q5 0 5 6
q0 3 6 17q3 6 8 30t9 30q4 4 4 70q0 82 -5 84t-5 14z" />
    <glyph glyph-name="K" unicode="K" horiz-adv-x="499" 
d="M406 251q0 -6 9 -25.5t9 -24.5q0 -7 4 -11q5 -6 11 -28t6 -37q0 -2 -0.5 -4t-0.5 -3q-8 -50 -34 -76q-9 -9 -30 -9q-13 0 -13 5q0 4 -7 4q-5 0 -19.5 12t-15.5 13q-6 3 -11 39l-15 110q-6 41 -24 58q-24 24 -35 24q-8 0 -18 -9t-10 -17q0 -10 -6 -12q-4 -1 -8.5 -27.5
t-7.5 -27.5q-3 -2 -5 -53q-1 -51 -9 -61q-8 -12 -8 -21t-6 -12q-7 -2 -7 -9t-6 -7q-7 0 -7 -4q0 -5 -7 -5q-6 0 -6 5q0 4 -14 4q-15 0 -31 17t-19 36q-4 22 -8 30q-5 10 0 15t5 34q0 35 -6 47q-4 8 -4 26q0 19 1 33q2 47 7 52q4 5 -2 16q-6 10 -1 19q4 6 8 44q1 9 1 22
q0 16 -5 29q-7 13 -7 26q0 12 6 17q7 6 7 63q0 49 -6 58q-6 8 -10 43q-1 8 -1 20q0 15 6 19q22 22 33 22q9 0 11 4q3 5 12 5q14 0 32 -9t28 -29q8 -16 8 -36q0 -15 -1 -26q-3 -36 -3 -59q0 -20 9 -47.5t16 -27.5q4 0 12 10t8 15q0 3 9 15t9 16q0 6 4 6q3 0 7 13t7 13
q4 0 4 7t7 9q7 4 9 20q4 17 6 17q4 0 6 23q3 22 13 39q9 18 26 20q17 4 17 6q0 4 6 4q7 0 7 -4t8.5 -4.5t10.5 3.5q1 3 6 3q8 0 18 -6.5t14 -14.5q5 -10 5 -34q0 -26 -7 -36q-7 -9 -7 -18q0 -8 -4 -8q-2 0 -7 -13t-7 -13t-5.5 -11t-6.5 -11q-2 0 -7.5 -10.5t-11.5 -24.5
t-6 -15q-6 -10 -6 -20q0 -5 -11 -26t-11 -30q0 -5 4 -8q4 -1 4 -14q0 -11 5 -11q4 0 4 -6q0 -8 6 -10q6 -1 17 -26q11 -24 14 -24t3 -7q0 -9 7 -21t9 -32t6 -22t4 -13z" />
    <glyph glyph-name="L" unicode="L" horiz-adv-x="648" 
d="M113 733q10 9 24 9q13 0 23 -1q36 -4 41 -9q4 -4 8.5 -40t4.5 -56q0 -8 -1 -9q-1 -2 -1 -32q0 -48 1 -84q0 -9 2.5 -17t2.5 -12q0 -5 -3 -14q-5 -16 -1 -22q7 -9 7 -125q0 -9 -0.5 -28.5t-0.5 -29.5v-18q0 -23 18 -28t101 -5h48q101 0 126 -1.5t30 -6.5q8 -8 14 -8
q8 0 21 -8.5t14 -15.5q3 -11 3 -28q0 -33 -7 -40q-7 -5 -7 -14q0 -7 -6 -11q-7 -3 -9 -12q-4 -8 -16 -13q-13 -6 -13 -8q0 -3 -21 -3q-27 0 -30 4q-2 3 -14 3h-10q-44 0 -123 3.5t-80 6.5q-2 2 -6 2q-7 0 -27 -5q-28 -5 -60 -5h-15l-44 1l-21 21q-20 19 -20 31t-7 17
q-5 5 -5 26q0 3 0.5 13t0.5 17q3 92 15 105q6 6 0 28q-4 20 -4 22q0 5 3 10q5 11 12 52.5t6 60.5q0 24 5 64q5 41 7 124l2 79z" />
    <glyph glyph-name="M" unicode="M" horiz-adv-x="896" 
d="M492 754q16 10 25 10q6 0 10 -4t13 1q3 2 9 2q18 0 41 -23l15 -15v-51q0 -52 -6 -53q-3 -1 -6 -9.5t-6 -18.5t-4 -12q-5 -5 -5 -77q0 -100 7 -110q6 -7 7.5 -124t5.5 -121t4 -18t-4 -17q-4 -2 -4 -22t-9 -30q-9 -11 -9 -16t-6 -5t-8 -5q-4 -7 -26 -7q-13 0 -17 4t-14 9.5
t-15 13.5q-6 10 -6 115q0 114 3 153q0 4 0.5 11.5t0.5 10.5q0 24 -5 59t-6 43q-2 19 -8 19q-5 0 -19 -15t-14 -20q0 -4 -6 -9t-10 -21q-4 -18 -15 -35q-13 -20 -13 -23q0 -2 -22 -19q-22 -16 -34 -16q-5 0 -8 4q-2 5 -10 5t-30 21t-25 31q-5 14 -14 25q-11 13 -11 18t-5 8
t-11 15q-12 26 -19 31q-4 3 -8 11t-7 1q-3 -11 1 -19q2 -6 2.5 -8.5t-1.5 -2.5q-4 0 -4 -27q0 -28 -7 -67q-10 -61 -20 -167q-6 -60 -36 -93q-8 -8 -19 -8q-17 0 -36 19l-16 16l1 49q0 47 6 50q3 2 7 47q2 42 7 49t5 60q0 67 -6 74q-5 6 -8 113q-2 118 -2 120q1 13 10.5 34
t14.5 21q4 0 17 9q9 8 23 8q8 0 14 -1q13 -1 17.5 -2t11 -6t9.5 -7q9 -6 13 -13q8 -13 19 -27q14 -20 14 -22q0 -3 11 -14t11 -18q0 -5 8.5 -13t13.5 -8q4 0 4 -14q0 -13 7 -15t9 -16q2 -11 25.5 -36t30.5 -25q15 0 32 28q7 12 13 12t6 6q0 7 4 7t13 30q15 40 21 53
q10 21 12 33q1 11 17 34.5t29 31.5zM836 98l-6 -2q-7 -1 -12 -1t-5 3q0 6 10 9q16 7 16 -2q0 -7 -3 -7zM765 77q1 1 16.5 8.5t17.5 7.5q1 -2 1 -6q0 -6 -7 -6q-6 0 -6 -4q0 -3 -10.5 -7t-11.5 -6q-3 -4 -22 -13.5t-24 -9.5q-7 0 -7 -4q0 -3 -16 -12.5t-21 -9.5q-2 0 -2 6
q0 7 10 7q11 0 18 9t14 9q6 0 6 3t12 8q22 10 32 20z" />
    <glyph glyph-name="N" unicode="N" horiz-adv-x="791" 
d="M433 444q0 6 -6.5 17t-6.5 15q0 8 -4 8q-5 0 -5 -4q0 -1 -0.5 -11.5t-1 -31.5t-0.5 -39q-1 -21 -1 -47q0 -31 8 -32q5 -1 7 -3.5t0 -4.5t-7 -2q-9 0 -10 -21v-37q0 -16 -3 -19q-5 -2 -5 -22t5 -21t7 -39l2 -37l-16 -11q-15 -10 -15 -16q0 -5 -7 -5t-7 -5q0 -4 -12 -4
q-19 0 -32 8q-11 6 -22 22q-9 15 -9 76q0 12 4 146q2 56 2 77q0 106 -10 116q-4 4 1 10t0 20q-5 12 -12 92q-5 60 -5 68q0 15 7 29q15 33 49 50q18 10 34 10q14 0 31.5 -8t17.5 -13q0 -6 7 -8q6 -3 6 -11t7 -20q2 -3 6.5 -14t7.5 -16q21 -46 28 -46q4 0 4 -6q0 -7 6 -13
t13 -20t7 -20q0 -7 5 -7q4 0 4 -5q0 -3 9 -23.5t9 -23.5q0 -11 19 -33.5t27 -22.5l2 1q5 5 9 47.5t4 82.5t-4 47q-3 5 2 28q6 28 22.5 39.5t49.5 11.5q14 0 22.5 -9.5t16.5 -34.5q9 -31 9 -79q0 -22 -3 -31q-10 -34 -10 -112v-10q2 -138 9 -147q4 -4 6 -33q5 -49 10 -69
q2 -10 8 -16q7 -7 7 -34v-22q0 -20 -2 -27t-11 -15q-13 -13 -13 -16t-14 -17q-11 -12 -36 -15q-6 -1 -14 -1q-10 0 -22 15q-4 5 -12 13t-12 14t-7 15q-4 10 -8 13q-2 1 -5.5 26.5t-6.5 25.5q-5 0 -3 9q0 1 0.5 3t0.5 4q0 13 -4 31.5t-7 18.5q-4 0 -4 8q0 5 -6.5 15t-6.5 16
q0 10 -7 12q-6 3 -6 9q0 4 -9 13.5t-9 13.5q0 6 -14 3q-11 -2 -12 -1.5t6 6.5t7 15q0 10 -8 22q-16 26 -26 26q-5 0 -5 3t-13.5 19.5t-13.5 20.5zM444 326q2 5 14 5q4 0 6.5 -1.5t1.5 -3.5q-2 -4 -14 -4q-5 0 -7 1t-1 3zM239 261q1 1 13.5 6t18.5 5q3 0 4 -1l1 -1
q0 -8 -27 -16q-1 0 -27 -11t-29 -11q-1 0 -1 2q0 5 9 12t17 8q18 4 21 7zM148 221q0 8 24 8q7 0 7 -0.5t-7 -5.5q-6 -6 -12 -6q-5 0 -26 -10.5t-21 -12.5t-17 -6q-19 -4 -23 -9q-5 -6 -11 -6t-6 6q0 4 13 8.5t13 7.5q0 4 15 6q5 1 19 8.5t22 7.5q10 0 10 4z" />
    <glyph glyph-name="O" unicode="O" horiz-adv-x="668" 
d="M487 572q0 4 -29 32.5t-32 28.5q-2 0 -15 -13t-31 -13q-11 0 -19 4q-18 10 -41 10h-10q-20 -1 -42 -10t-22 -16q0 -5 -3 -6q-5 -2 -19 -24.5t-16 -31.5q-11 -36 -12 -44q-2 -15 -7 -30t-7 -38q-4 -36 -8 -39q-5 -3 -5 -63q0 -73 6 -75q5 -2 5 -10q0 -10 14.5 -22.5
t25.5 -12.5q14 0 15 -3t16 -3q16 0 34 3.5t18 7.5t10 4t23 13q11 11 27 23t17 17q0 3 18.5 24.5t18.5 25.5q0 6 6 12q7 7 26.5 40.5t22.5 42.5q2 10 9 23q19 42 19 86v14q-2 36 -7 38q-6 2 -6 5zM496 247q0 -3 -11 -17t-11 -16q0 -9 -47.5 -57.5t-58.5 -51.5q-12 -3 -12 -8
q0 -3 -5 -1t-18 -4q-44 -20 -84 -23q-12 -1 -34 -1q-48 0 -63 15q-11 11 -15 11t-20 16.5t-16 20.5q0 5 -10 12q-11 8 -14 28q-2 19 -7 19q-4 0 -4 12t-7 26q-5 12 -5 22q0 8 1 12q3 15 5 66q1 46 8 58q6 8 10 42q3 45 19 75q3 5 7.5 27t8.5 28q6 12 6 22q0 9 4 9q5 0 5 9
q0 10 10.5 29t24.5 33q17 17 17 20q0 2 10 12q9 8 16 19q6 11 16 13q11 2 11 6t6 4q7 0 17 6q7 5 30.5 10t31.5 9q10 5 22 5q14 0 42 -8q32 -9 40 -9t8 -4t22 -4q21 0 29 -8q11 -11 33 -22q1 -1 9.5 -7.5t15.5 -6.5t16 -16q5 -10 17 -25q7 -9 7 -17t5 -8q3 0 5.5 -6t5 -14
t2.5 -9q6 -9 11 -59q0 -10 4 -18q2 -6 2 -19q0 -44 -8 -66q-2 -4 -6 -13t-6 -12q-6 -9 -6 -20q0 -7 -9 -18q-6 -6 -22 -35t-21 -34q-2 -3 -15.5 -23.5t-18.5 -25.5q-6 -6 -6 -10z" />
    <glyph glyph-name="P" unicode="P" horiz-adv-x="517" 
d="M269 622q-14 7 -39 7h-26v-66q0 -67 5 -77q6 -11 17 -13q13 -4 15 -7q4 -4 22 -4q19 0 21 4q2 5 18 14q18 12 24 35q6 21 6 41q0 17 -5 22t-5 11q0 7 -11.5 18t-18.5 11h-2q-10 -2 -21 4zM145 771q1 1 12 1q26 0 73 -6t51 -11q3 -3 25 -3t42 -4t22 -9t7 -5q13 0 38.5 -35
t25.5 -54q0 -10 4 -14q3 -3 7 -41t4 -60q0 -3 -0.5 -6.5t-0.5 -4.5q-2 -9 3 -19q6 -11 2 -17q-2 -2 -12 -30t-15 -29q-6 -2 -6 -8q0 -5 -16 -19t-22 -14t-11 -5t-35 -15t-41 -10q-9 0 -11 -6q-1 -4 -16 1q-15 6 -22 1q-8 -5 -18 -5q-7 0 -33 -8l-23 -7l-3 -35q-4 -37 -7 -43
q-5 -10 -5 -19q0 -10 5 -13q4 -3 2 -11q-5 -12 -5 -25q0 -8 4 -22q6 -15 0 -18q-6 -4 -6 -26q0 -14 -2.5 -20t-8 -12.5t-9.5 -14.5q-7 -13 -11.5 -15.5t-22.5 -2.5q-16 0 -22 2.5t-15 13.5q-21 24 -21 51q0 5 2 17q5 18 5 66t4 52q3 3 7 103q2 89 7 116q4 22 4 38
q0 19 -4 23q-2 1 -7.5 58t-6.5 58q-6 6 0 17q5 10 0 19q-2 3 -2 8t3.5 13.5t3.5 12.5q0 7 8 17t13 10t8 7q2 4 24 9.5t24 7.5z" />
    <glyph glyph-name="Q" unicode="Q" horiz-adv-x="716" 
d="M316 611q-14 14 -27 14q-7 0 -7 -5q0 -4 -6 -4t-10 -6q-3 -6 -18 -17q-16 -11 -30.5 -24.5t-14.5 -17.5q0 -5 -6 -9q-4 -3 -9 -19t-7 -19q-2 -2 -6 -16.5t-7 -16.5q-5 -4 -17 -66q-4 -17 -4 -47q0 -33 5 -51q8 -27 48.5 -58t79.5 -40q14 -3 29 -3q52 0 63 16q2 4 2 5
q0 5 -17 22q-34 34 -38 71q-1 6 -1 13q0 11 14 26q14 14 19 14q4 0 7 -2q14 -9 58 -9q5 0 14 -17q9 -16 24 -32.5t20 -16.5q6 0 6 6q0 7 3 7q7 0 18.5 33.5t11.5 53.5v6q-8 56 -16 56q-1 0 -3.5 6t-5 12.5t-3.5 7.5q-3 1 -11 18q-9 19 -43 49q-8 8 -37 21t-37 13
q-10 0 -12 7q-3 6 -9 6q-7 0 -20 13zM85 509q0 3 13.5 31t13.5 32q0 8 7 18q1 3 9 16t13 21q14 22 54 62.5t48 40.5q9 0 9 4q0 7 18.5 15t39.5 10q30 2 32 6t8.5 4t8.5 -4q1 -2 25 -6q22 -3 33 -14q6 -6 22.5 -12t21.5 -15q7 -12 20 -25q12 -12 12 -25q0 -9 4.5 -15.5
t5.5 -13.5q2 -8 16 -24.5t19 -16.5t17.5 -14.5t14.5 -22.5q2 -11 7 -11q4 0 4 -5q0 -8 6 -17q1 -2 4 -13t6 -21t5 -10q13 0 17 -83v-18q0 -29 -6 -48q-7 -26 -11 -26t-4 -5q0 -6 -13.5 -32.5t-24.5 -42.5q-15 -21 -15 -25q0 -1 24.5 -28t24.5 -30q0 -4 3 -4q4 0 19 -20
t24 -22q19 -5 19 -36q0 -16 -5 -28q-4 -11 -18 -29.5t-23 -23.5q-1 -1 -6 -1q-9 0 -22 4t-13 7t-13.5 9.5t-13.5 8.5q0 4 -12 16q-13 13 -15 20q-4 7 -8 7t-4 7t-18 24t-29 21q-11 5 -21 1q-24 -9 -55 -18q-3 -1 -17 -1q-27 0 -65 3.5t-43 7.5q-1 1 -12.5 3.5t-22.5 5
t-11 3.5q0 2 -6 4.5t-12.5 5t-7.5 3.5q0 1 -23 13t-57 43t-34 40q0 2 -7 16q-11 24 -11 116q0 70 8 81q6 8 7 26q4 23 10 33q6 14 6 17z" />
    <glyph glyph-name="R" unicode="R" horiz-adv-x="556" 
d="M313 577q-34 17 -81 27q-2 1 -7 1q-11 0 -16 -16t-8 -58l-3 -51l16 -7q13 -6 26 -6q10 0 13 -5q2 -5 26 -5q26 0 36 11q21 23 30 58l1 2v2q0 11 -11 26.5t-22 20.5zM272 204q-4 0 -21 13t-20 13q-5 0 -5 3q0 2 -12 16l-11 12l-7 -12q-6 -12 -1 -27q5 -13 5 -52
q0 -38 -7 -42t-7 -8q0 -8 -20.5 -21.5t-33.5 -13.5q-11 0 -24 12.5t-18 28.5q-6 17 -8 95q-2 77 -6 79q-2 1 -7 25t-6 25q-4 6 -4 25q0 14 3 19q4 6 4 27q1 43 1 94q0 47 -6 63q-7 23 -7 48q0 18 3 31q6 26 44 44q25 12 37 20q21 15 44 23q10 4 17 -3q6 -5 35 -10
q74 -12 81 -19q4 -4 11 -4q4 0 25 -9t25 -9q7 0 7 -4t5 -4q7 0 42.5 -32t40.5 -43q6 -10 6 -55q0 -35 -5 -42q-5 -5 -7 -22t-15 -30q-14 -16 -14 -19q0 -7 -9 -9t-12 -12q-7 -18 -43 -35q-21 -11 -23 -14q-1 -3 -6 -3t-19.5 -7.5t-14.5 -10.5q0 -5 11.5 -15.5t16.5 -10.5
q7 0 7 -4q0 -5 6 -5q4 0 13 -8.5t14 -8.5q6 0 6 -5q0 -4 8 -4q7 0 31.5 -15.5t28.5 -22.5q3 -6 9 -6t24 -18q13 -12 15.5 -18t2.5 -23q0 -25 -5 -27q-4 -2 -4 -12q0 -18 -34 -37q-18 -9 -32 -9q-18 0 -33 15t-18 15q-4 0 -24 20q-19 19 -27 19q-7 0 -7 4q0 5 -12 7
q-14 5 -20 14q-9 11 -14 11z" />
    <glyph glyph-name="S" unicode="S" horiz-adv-x="631" 
d="M380 721q0 8 44 8q8 0 24.5 -0.5t23.5 -0.5q57 -1 73 -8t23 -33q8 -32 8 -51q0 -11 -3 -11q-5 0 -5 -7t-5 -7q-6 0 -13 -7q-16 -14 -35 -14q-8 0 -16 3q-14 5 -14 9q0 3 -11 9t-12 7q-3 4 -26 4q-26 0 -31 -5q-5 -4 -28 -9t-28 -8q-12 -6 -17 -6q-6 0 -41.5 -14
t-38.5 -18q-2 -4 -19 -4q-19 -1 -31.5 -11t-14.5 -24q-1 -14 6 -21q7 -5 7 -9q0 -10 20.5 -18.5t45.5 -8.5h7q17 0 26 -5q15 -7 57 -9q14 -1 23 -1.5t14.5 -1t11.5 -3t8.5 -3.5t11 -5.5t13.5 -6.5q18 -8 34.5 -22t16.5 -20q0 -5 7 -17q6 -10 6 -25q0 -12 4 -12q3 0 8 -21.5
t7 -22.5q5 -3 0 -11q-6 -14 -7 -39q-5 -53 -31 -76q-11 -9 -11 -15q0 -4 -14 -14.5t-19 -10.5q-2 0 -9 -7t-15 -7q-5 0 -11 -4t-11 -4t-13.5 -7t-14.5 -7q-11 0 -27 -9q-17 -9 -75 -9q-29 0 -52 2t-54.5 6.5t-43.5 5.5q-23 2 -32 7t-14 16q-2 8 -8 8q-4 0 -4 33t7 33
q6 0 6 4q0 6 15 6q13 0 28 -4q25 -5 58 -9q35 -2 43 -7q10 -5 15 0q8 6 46 6q14 0 24.5 1.5t15.5 3t13.5 4.5t14.5 5q12 2 12 7t6 5q10 0 20.5 18t15.5 41q1 3 1 8q0 29 -37.5 47.5t-104.5 22.5q-16 1 -23.5 2t-16.5 3t-24 4q-22 2 -29.5 6t-26.5 23q-24 24 -34 52.5
t-10 73.5q0 29 2 38.5t11 24.5q13 20 13 28q0 3 15.5 25t15.5 25q0 5 8 5q9 0 14 6q5 7 11 7q7 0 7 4q0 5 5 5q7 0 19 7q30 16 96 22q31 2 33 5q0 1 20 6.5t20 7.5z" />
    <glyph glyph-name="T" unicode="T" horiz-adv-x="779" 
d="M553 792q1 4 10 4q15 0 34 -11q18 -11 24 -11q7 0 16 -6q10 -5 28 -9q14 -3 32.5 -20t18.5 -27q0 -8 6 -10q5 -2 0 -6q-4 -3 -8 -17q-8 -37 -18 -37q-6 0 -6 -4q0 -3 -6 -7t-13.5 -8t-8.5 -5q-2 -3 -43 -5q-40 -2 -48 -6q-8 -5 -19 -5q-10 0 -20 5q-2 2 -15 2
q-16 0 -27 -2q-12 -2 -27 -2q-10 0 -12 2q-4 4 -14 4q-6 0 -8.5 -3.5t-3.5 -16.5q-3 -36 -3 -64q0 -45 -4 -50q-2 -4 -2 -6q0 -3 2 -9t2 -9q0 -4 -3 -7q-4 -5 1 -13q6 -7 6 -178q0 -121 -1.5 -148.5t-7.5 -38.5q-10 -16 -17 -20q-3 -2 -8 -5.5t-7.5 -4.5l-7.5 -3t-11.5 -2.5
t-16.5 -0.5q-26 0 -36 7t-21 32q-11 24 -11 66q0 21 5 38q9 32 9 65q0 16 -3 19q-5 5 0 20q3 11 3 42v21q-1 27 -1 87q0 9 0.5 24.5t0.5 21.5q0 69 -12 107l-10 30l-91 2q-89 0 -95 4q-5 2 -5 10q0 6 -7 11q-5 4 -13 34q-4 22 -4 24q0 6 8 25q6 14 11.5 19.5t18.5 10.5
q19 8 35 8q4 0 28 -2q26 -2 28 -2q13 0 16 6q2 7 16 9q8 1 28 11q12 5 20 5q9 0 29 -3q24 -3 69 -3h17q172 5 173 11z" />
    <glyph glyph-name="U" unicode="U" horiz-adv-x="612" 
d="M93 102q0 6 -8.5 20t-8.5 19q0 10 -4 12q-3 2 -6.5 28t-3.5 44v8q2 13 -4 17q-4 3 -4 10.5t4 9.5q4 1 6 105t6 111q5 8 5 64q0 47 5 82q2 13 2 25q0 3 -1 15t-1 29q0 38 7 45q6 6 6 12q0 7 31 16q12 3 18 -3q8 -6 11 -6q4 0 18 -14q25 -29 25 -53q0 -13 -4 -26
q-7 -23 -9 -66q-4 -43 -7 -45q-3 -1 -3 -50q0 -65 4 -69q5 -5 5 -55q0 -48 -5 -65t-5 -29q0 -13 5 -18q3 -3 6.5 -21.5t5.5 -20.5q5 -5 5 -12t7 -30q7 -22 16 -25q11 -4 12 -6q5 -7 20 -7q11 0 19 5q38 30 59 61q16 24 25 33q10 12 12 22q6 24 22 36q6 4 6 14q0 11 4 11
q2 0 7 13.5t9 14.5q6 1 6 14q0 11 4 11q7 0 12.5 21t5.5 43q0 19 -4 27q-5 7 -9 47q-5 40 -9 63q-4 24 -4 74q0 37 3 46t21 27l15 18l39 -1q32 0 42.5 -5t13.5 -22q4 -14 6 -14q4 0 4 -39q0 -37 -4 -41q-2 -2 -5.5 -27.5t-3.5 -41.5v-92q0 -88 -6 -99q-7 -12 -7 -18t-4 -6
t-7 -12q-1 -8 -13 -22.5t-13 -24.5q-4 -15 -7 -15q-2 0 -7 -14.5t-6 -14.5q-4 -4 -4 -14t-14 -36q-13 -24 -13 -28q0 -5 -21 -23.5t-26 -18.5t-5 -4t-14 -18.5t-36.5 -35.5t-25.5 -24q-17 -19 -23 -19l-22 -14q-20 -14 -44 -14q-18 0 -31 5t-22 7q-19 3 -19 7q0 3 -23 28
q-39 39 -39 59z" />
    <glyph glyph-name="V" unicode="V" horiz-adv-x="673" 
d="M367 351q0 -4 8.5 -16.5t8.5 -17.5q0 -8 4 -8q3 0 10.5 16.5t7.5 23.5q0 4 6 18q6 10 10 33q4 29 10 46q5 12 5 27q0 12 4 18q3 3 9.5 45t8.5 45q4 8 4 30q0 21 7 24q6 3 6 22q0 20 5 20q4 0 4 10q0 3 -0.5 7t-0.5 6q0 19 8 27q6 6 6 16q0 9 15 28.5t23 20.5q1 0 4 0.5
t5 0.5q28 0 32 -6q1 -3 14 -8q27 -11 27 -67q0 -37 -25 -93q-11 -26 -20 -65q-7 -41 -15 -54q-7 -12 -7 -23q0 -10 -4 -10t-6 -34q-2 -32 -6 -36q-4 -1 -8 -22q-6 -42 -23 -82q-6 -14 -6 -21t-4 -9q-4 -4 -7 -20q-4 -18 -6 -18q-3 0 -7.5 -24t-6.5 -24q-3 0 -3 -45v-18
q0 -23 -4 -33t-19 -27q-14 -14 -33 -20q-17 -5 -21 -5t-22 8q-20 11 -20 14t-6 3q-12 0 -12 22q0 5 -6.5 21t-6.5 20q0 5 -11 28.5t-11 29.5q0 11 -4 13t-12.5 29.5t-11.5 45.5q-4 25 -16.5 55t-17.5 30q-1 0 -5 18q-4 22 -18 46q-10 17 -17 33q-9 20 -13 22q-1 1 -3.5 7.5
t-5 12.5t-3.5 6q-3 0 -8 12q-2 4 -19.5 35t-19.5 38t-6 7t-6 9q-3 8 -15 22q-21 23 -24 34q-4 10 -8 10q-3 0 -3 6q0 3 8 45q9 41 29 41q7 0 17 7q11 6 11 2q0 -5 7 -5q4 0 17.5 -13t16.5 -13q7 0 13.5 -9t6.5 -18q0 -13 7 -15q3 -1 8 -19t9 -18q10 0 18 -30q3 -10 7 -10
q2 0 6 -13t7 -13q4 0 6 -11q4 -15 18 -30q1 -1 34 -64.5t35 -64.5q3 -1 3 -7q0 -7 10 -29t13 -22q4 0 4 -6z" />
    <glyph glyph-name="W" unicode="W" horiz-adv-x="889" 
d="M253 486q0 -6 7 -16.5t7 -15.5q0 -10 3 -11q1 -1 6.5 -20t7.5 -20t6 -17t7 -16q4 0 6 -13q2 -9 8.5 -13.5t11.5 -1.5q3 2 7 60q5 93 10 134q2 12 2 33q0 7 -0.5 19.5t-0.5 18.5q0 22 5 38q8 22 8 48q0 21 5 41q0 1 3 16t6.5 24.5t7.5 11.5q5 2 5 8q0 7 53 7q52 0 59 -7
t12.5 -41t9 -63.5t6.5 -29.5q2 0 6 -19q1 -12 7 -27q1 -1 3.5 -14.5t5.5 -25t5 -11.5q4 0 4 -9q0 -12 6 -23q9 -23 21 -76q4 -23 8 -23q1 0 3.5 -11.5t5.5 -23t3 -12.5q1 -2 4 -13t6 -20.5t6 -10.5h1q13 0 18 52q1 19 5.5 34t5.5 32q2 14 7 24.5t5 28.5q0 24 6 31
q3 5 8 46.5t9 46.5q4 4 8 23q15 76 42 97q9 8 23 8q12 0 22 -1q23 -2 30 -4.5t15 -12.5q13 -15 13 -29q0 -5 0.5 -16t0.5 -15q0 -8 -8.5 -32t-8.5 -32q0 -2 0.5 -6t0.5 -5.5t-1.5 -3.5t-3.5 -3q-7 -2 -9 -19q-5 -35 -18 -35q-3 0 -6 -12t-6 -25t-4 -14q-3 -5 -7.5 -42.5
t-7.5 -42.5q-6 -12 -6 -27q0 -17 -4 -19q-2 -2 -5 -12t-5.5 -21.5t-3.5 -14.5q-14 -35 -20 -73q-3 -18 -7 -22q-5 -2 -7 -61q-1 -55 -8 -62q-6 -4 -6 -11t-14 -22t-20 -15q-10 0 -16 -6q-9 -6 -19 -6q-23 0 -56 33q-26 26 -26 54q0 3 2 7q5 5 -2 16q-7 10 -13 73
q-7 79 -12 82q-4 2 -4 10q0 9 -6 13q-5 4 -9 29q-2 25 -6 27t-9 29q-8 37 -15 37q-6 0 -9 -30q-1 -14 -7 -38q-5 -13 -5 -66q0 -37 -7.5 -69t-9.5 -48q-4 -28 -4 -44q0 -3 0.5 -13.5t0.5 -17.5q0 -20 -9.5 -39.5t-22.5 -24.5q-13 -6 -13 -10q0 -6 -21.5 -12.5t-37.5 -6.5
q-11 0 -11 4q0 3 -11 7q-11 3 -11 12q0 6 -6.5 17t-6.5 16q0 7 -7 14q-8 8 -10 27q-4 21 -8 24q-7 7 -7 26v7q0 11 -5 17q-7 9 -7 29q0 19 -5 19q-4 0 -4 8q0 7 -9 23q-10 18 -10 31q0 15 -4 17q-1 1 -3.5 12t-5 21.5t-4.5 10.5q-4 0 -4 9q0 11 -6 20q-14 24 -23 62
q-2 9 -6 9t-4 13q0 9 -7 22t-8 19q-2 10 -10 26.5t-11 16.5q-4 0 -4 11q0 10 -13 25t-13 20q0 4 -6 7q-7 3 -7 64v61l11 2h4q12 0 31.5 -5t19.5 -9q0 -5 10 -15q19 -21 36 -54q9 -18 14 -23q6 -6 6 -12q0 -5 6.5 -9.5t6.5 -10.5q0 -8 11 -28q6 -11 18.5 -46t17.5 -44
q5 -10 5 -20z" />
    <glyph glyph-name="X" unicode="X" horiz-adv-x="638" 
d="M503 791q5 0 10.5 4.5t11.5 4.5t12.5 -4.5t15.5 -4.5q20 0 24.5 -5.5t4.5 -31.5q0 -34 -4 -35q-5 -3 -5 -22q0 -16 -6.5 -35t-13.5 -22q-6 -2 -6 -8q0 -8 -5 -11q-11 -6 -22 -32q-4 -11 -7 -13q-9 -7 -50 -94q-14 -30 -26 -40q-11 -10 -19 -25q-7 -16 -7 -43q0 -17 4 -17
q2 0 15.5 -19.5t15.5 -19.5q4 0 6 -12q3 -10 18.5 -28t16.5 -19q8 -12 14 -12t6 -6q0 -5 15 -13q13 -6 25 -21t15 -29q1 -3 1 -10q0 -34 -14 -62q-4 -8 -23 -21q-16 -11 -18 -14t-18 -3q-15 0 -31.5 8.5t-19.5 17.5q-5 9 -7 9q-4 0 -4 5t-8 13t-13 8q-4 0 -8 8q-8 20 -45 57
q-18 18 -19 24q-2 5 -5.5 6t-8.5 -1t-7 -2q-3 0 -6 -10q-1 -8 -13 -22q-11 -13 -11 -16t-9 -12t-9 -13q0 -6 -4 -6q-2 0 -13 -19.5t-14 -19.5t-6 -10q-4 -16 -37 -43q-15 -10 -26 -10q-18 0 -39 18q-19 16 -19 30q0 15 -4 15t-4 8.5t4 9.5q5 1 -1 12q-6 9 2 14q1 1 5 3.5
t8 5.5t7 6q11 11 17 11t6 6q0 4 15 21t15 21t5 4q2 0 7 11.5t9 12.5q6 1 6 8t7 20.5t10 13.5q2 0 5 9.5t5 21.5l3 11q3 6 3 20q0 21 -5 43t-11 22q-2 0 -6 13q-1 9 -13 24t-14 20q-2 9 -7 9q-4 0 -4 6q0 3 -19.5 34t-28.5 42q-4 4 -4 10q0 4 -6 10q-2 2 -10 16t-14 17
q-9 4 -11 9q-3 5 -10 5q-6 0 -6 10q0 9 -7 16q-5 5 -5 21v18q2 28 8.5 38t28.5 18q20 8 28 3t14 -1q1 1 3 1q7 0 21 -13.5t17 -24.5q2 -11 5 -11q2 0 14 -20t14 -20q4 0 4 -4q0 -5 9.5 -24.5t12.5 -19.5q2 0 6 -13q2 -13 9 -15q6 -2 6 -9t5 -7q2 0 6 -11t7 -11q4 0 4 -4
q0 -10 25 -38q5 -5 7 -11q1 -4 5 -4q11 0 26 30q35 75 63 104q4 4 9.5 17.5t7.5 17.5q6 8 6 23q0 10 4 17t21 26q11 13 11 19q0 8 16 24t23 16z" />
    <glyph glyph-name="Y" unicode="Y" horiz-adv-x="646" 
d="M305 571q0 -2 11 -13t11 -14q0 -6 12 -15q11 -9 23 -9q8 0 12 3q4 2 13.5 22t9.5 25q0 2 13 30q35 76 39 91q2 13 6 13t4 8q0 13 13.5 22t30.5 9q15 0 23 -7q7 -6 20 -6q19 0 37 -26q8 -11 8 -35q0 -45 -20 -62q-7 -5 -7 -12q0 -6 -7 -13q-6 -6 -6 -19t-5 -13q-4 0 -4 -6
q0 -4 -6.5 -11.5t-6.5 -11.5t-10.5 -16t-13.5 -12q-4 0 -19 -16.5t-20 -26.5t-13.5 -20.5t-13.5 -26.5q-8 -23 -14 -31q-6 -10 -6 -14q0 -6 -6 -12q-7 -7 -7 -20t-4 -13t-4 -17q0 -21 5 -26t7 -50q2 -44 5 -49t3 -32q0 -36 -4 -39q-1 0 -1 -9q0 -6 -6 -18.5t-10 -15.5
q-4 -1 -4 -12q0 -8 -5 -8q-10 0 -18 -19q-2 -7 -10 -7q-7 0 -7 -5q0 -4 -18 -4q-20 0 -31 13q-10 10 -15 24q-2 12 -6 14t-4 10t-7 13q-7 6 -7 62q0 2 0.5 13t0.5 27v30v24q0 41 -3 50q-1 3 -5 21.5t-8.5 33t-8.5 17.5q-6 3 -6 25q0 12 -1.5 17t-6 10t-6.5 9q-9 22 -24 37
q-10 8 -10 19q0 8 -5 11q-4 1 -11 17t-23 34q-18 20 -18 24t-21 23q-27 27 -35.5 40.5t-13.5 38.5q-4 26 -4 28q0 6 3 9q5 5 5 12q0 9 10 17q9 9 26 9q15 0 27 -1q37 -2 50.5 -8t18.5 -25q4 -18 14 -28q9 -9 28 -24.5t24 -17.5q4 -2 4 -6q0 -3 11 -13.5t11 -14.5t8.5 -13
t8.5 -12z" />
    <glyph glyph-name="Z" unicode="Z" horiz-adv-x="837" 
d="M604 432q0 -2 -19.5 -25t-19.5 -24q0 -5 -10 -13.5t-15 -8.5q-4 0 -10 -11t-14 -11q-7 0 -27 -20q-3 -3 -49 -52q-76 -79 -76 -90q0 -5 7 -8q10 -5 84 -5q78 0 81 -3q12 -4 29 -4q61 -1 117 -9.5t71 -18.5q9 -5 9 -16q0 -8 -1 -14q-2 -24 -7 -27q-3 -1 -7 -13.5t-8 -12.5
t-10 -6t-6 -11t-5 -5q-6 0 -20 -7q-9 -5 -18 -5q-8 0 -13 2q-28 7 -140 19q-88 10 -215 10q-35 0 -39 -2q-2 -2 -23 -6t-31 -10q-7 -4 -20 -4q-18 0 -37 8q-8 4 -19.5 18t-11.5 20q0 4 -7 9q-7 7 -7 34q0 23 6 41t21 28q46 29 65 38q9 4 9 8t10 7q11 2 29 20q19 17 23 17
t4 5q0 9 30 30q10 8 10 13q0 6 7 8q7 3 25 19.5t38.5 37l22.5 22.5l5.5 5.5l5.5 5.5l4 4l3 3l20 20q72 70 88 99q11 21 14 22q5 5 6 15q4 11 -4 11q-7 0 -7 4q0 10 -123 10h-14q-22 0 -31 6q-7 4 -20 4q-6 0 -19 -1t-19 -1q-9 0 -13 1q-15 3 -118 3q-99 0 -107 2l-20 5
l-12 3v65q0 66 4 66q6 0 34 -7t33 -10q8 -5 19 0q9 4 54 4q39 0 73 9q32 8 103 8q64 0 72 -7q4 -4 13 -4t28 3q27 4 62 4q24 0 27 -3q2 -3 60 -5q41 -1 53.5 -3t30.5 -11q26 -13 30 -13q9 0 20 -18t11 -30q0 -4 -2 -6q-5 -7 -8 -23t-6 -19q-4 -3 -13 -17.5t-9 -18.5t-5 -4
q-4 0 -4 -6t-41 -46t-47 -40q-3 0 -6 -12q-1 -10 -21 -28q-17 -17 -17 -21z" />
    <glyph glyph-name="a" unicode="a" horiz-adv-x="556" 
d="M295 392q-4 2 -6 17q-1 14 -14 7q-11 -6 -16 -6q-4 0 -18 -10t-16 -13q-2 -4 -6 -4t-19 -15.5t-15 -19.5t-5 -7q-6 -4 -17 -26q-11 -23 -14 -24q-2 -2 -6.5 -20.5t-5.5 -20.5q-11 -18 -11 -93q0 -14 2 -26q4 -19 4 -27q0 -1 25 -1q22 0 38 10q12 8 15 13q2 3 8 3
q13 0 42.5 40.5t29.5 57.5q0 7 5 7q2 0 4.5 13.5l5 27t3.5 14.5q4 3 4 26q0 39 -7 58q-7 17 -10 19zM231 68q-5 0 -9 -7t-8 -7q-6 0 -18 -7q-13 -7 -32 -9q-18 -2 -18 -6t-17 -4q-24 0 -33 6q-23 13 -34 36q-8 16 -8 37q0 15 1 25q6 96 15 102q3 2 7 25q2 17 15.5 47
t21.5 35q5 3 5 7q0 8 41 49t61 52q29 16 36 16q1 0 2 -0.5t2 -0.5q8 -2 11 2q2 3 23 11q18 6 34 6q31 0 48 -24q3 -5 6 -9.5t4.5 -6.5t2.5 -8t2 -17q4 -24 8 -25q4 -2 4 -11q0 -6 9 -28t9 -30q0 -16 6 -20q7 -5 7 -15q0 -11 4 -11q3 0 8 -18.5t6 -19.5q4 -2 4 -9
q0 -10 6 -19q1 -2 6 -18.5t9 -20.5q1 0 13 -23q9 -19 9 -35q0 -13 -6 -19t-6 -10q0 -3 -20.5 -8t-21.5 -7q-2 -3 -13 -3t-14 11q-2 10 -6 10t-4 7q0 6 -6 11t-10 21q-4 18 -7 19q-5 3 -7 21t-6 18t-4 11q0 10 -5 11q-7 -2 -10 -13q-4 -13 -7 -13t-7 -11t-6 -11q-4 0 -4 -6
q0 -10 -43.5 -48t-55.5 -38z" />
    <glyph glyph-name="b" unicode="b" horiz-adv-x="519" 
d="M323 348q0 3 -14.5 7.5t-15.5 5.5q-2 4 -27 6q-6 1 -15 1q-13 0 -20 -6q-36 -26 -57 -77q-6 -13 -6 -53q0 -16 2 -18q5 -3 7 4q2 4 5.5 6t6.5 0.5t3 -5.5q0 -7 3 -7q4 0 14 -10q20 -18 65 -27q14 -4 16 -7q3 -4 21 -4q32 0 39 7q4 6 13 6t9 6q0 7 7 14q7 8 7 43t-6 37
q-4 2 -4 12q0 12 -7 14q-6 3 -6 8q0 6 -13.5 19.5t-19.5 13.5q-7 0 -7 4zM205 102q0 2 -17.5 6.5t-17.5 7.5q0 4 -7 4q-6 0 -6 -6q0 -7 -4 -7q-2 0 -14 -10q-13 -13 -35 -13q-13 0 -19 6q-7 9 -7 26q0 14 5 29t0 19q-7 4 -7 44q0 13 1 20v15q0 31 -3 81t-5 53q-4 6 -4 18v7
q0 28 -3.5 81.5t-6.5 63.5q-5 16 0 21t5 38q0 36 -5 52q-5 20 0 25t5 14q0 10 10 18.5t22 8.5h5q12 -2 16.5 -7.5t6.5 -19.5t3 -50q1 -62 7 -66q5 -3 5 -29q0 -19 1 -29l2.5 -25t3.5 -34q4 -43 8 -46q5 -3 -1 -9q-5 -5 -5 -18q0 -12 5 -12q3 0 35 28.5t36 28.5q6 0 8 5
q3 7 50 7q40 0 50 -5q7 -3 29 -9q14 -2 16 -9q2 -6 19 -14q42 -19 47 -49q2 -14 15 -33q11 -16 11 -43v-20q0 -44 -5 -51q-4 -6 -6 -19q-4 -25 -41 -57t-60 -32q-12 0 -12 -4q0 -5 -68 -5t-68 4z" />
    <glyph glyph-name="c" unicode="c" horiz-adv-x="540" 
d="M162 480q4 0 13 8.5t12 8.5q5 0 17 7q43 19 102 24q44 4 47 4h1q8 0 34.5 -8.5t31.5 -12.5q6 -4 15 -7q10 -3 18.5 -10.5t8.5 -12.5q0 -6 11 -6q6 0 9 -1.5t1.5 -4t-6.5 -4.5q-6 -3 -6 -15q1 -9 -6.5 -20t-7.5 -12q-2 -5 -26 -7h-13q-13 0 -19 7q-9 9 -15 9q-5 0 -5 4
q0 2 -17.5 6.5t-17.5 7.5q0 5 -42 5q-41 0 -44 -5q-2 -5 -12 -5q-15 0 -37 -15t-26 -28q-2 -9 -7 -9q-4 0 -4 -9q0 -7 -6.5 -17.5t-8.5 -15.5q-4 -15 -8 -19q-10 -14 -15 -64q0 -2 -0.5 -6t-0.5 -5q0 -11 13 -30q11 -18 17 -18q3 0 7 -9t8 -9q5 0 12 -9t22.5 -17t27.5 -8
q1 0 3 0.5t3 0.5q11 3 32 7q16 3 41 16.5t25 18.5q0 4 5 4q6 0 32 13q17 9 24 9q5 0 6 -3q3 -4 8.5 -3t11 0.5t5.5 -4.5q0 -7 6 -12q7 -5 7 -22t-16.5 -34t-40.5 -25q-23 -7 -25 -14q-2 -6 -12 -6q-8 0 -14 -4q-21 -21 -62 -25q-28 -4 -31 -7q-4 -3 -12 1t-13 0q-6 -5 -19 0
q-9 4 -17 4h-4q-8 0 -36 27q-28 26 -34 26t-6 9t-5 9t-20 16t-21 28q-7 16 -7 35q0 11 4 15q4 2 6 36q2 28 9 57t12 31q4 1 4 10q0 6 9 16t9 15t14 35q24 48 41 48z" />
    <glyph glyph-name="d" unicode="d" horiz-adv-x="489" 
d="M295 195q0 3 11 15t11 14t5 13.5t5 17.5q0 4 -1 6q-2 5 -7 76t-7 76q-6 10 -19 10q-15 0 -17 -4q0 -1 -19 -6t-19 -7q0 -5 -11 -7q-9 -2 -32 -23t-23 -27q0 -5 -3 -6q-4 -1 -13.5 -21.5t-9.5 -26.5q0 -7 -5 -12t-7 -39q0 -4 -0.5 -10t-0.5 -8q0 -17 9 -38q15 -33 37 -40
q10 -4 12 -7q1 -1 5 -1q8 0 22 4.5t18 9.5q1 1 13 7q9 2 20 13q7 7 19 13q7 2 7 8zM272 85q-3 0 -22 -8.5t-24 -8.5q-8 0 -13 -5q-2 -2 -16 -2q-33 0 -72 9q-21 5 -29 28q-2 9 -7 9q-4 0 -4 7q0 6 -9 15t-9 19q0 12 -6 18q-7 10 -7 54q0 34 5 44q3 6 6.5 19.5t8.5 22.5
q6 10 6 18q0 6 6 11q7 5 9 20q4 15 7 15q5 0 5 7q0 6 5 9l16 20q15 21 19 21t4 6q0 5 28 23.5t36 18.5q10 0 12 5q2 4 32.5 13t40.5 9h10l-3 71q-4 73 -8 77q-5 5 -5 45t7 44q7 5 7 9t13 19q12 15 20 15q5 0 8 -8q2 -10 9 -9q3 0 3 4q0 5 7 5q6 0 6 -10t5 -15q2 -2 7 -56.5
t6 -56.5q1 -1 6.5 -78.5t7.5 -78.5q5 -3 5 -65t7 -74q5 -10 2 -17q-8 -18 -8 -71q0 -26 3 -41q2 -8 3.5 -24.5t4 -29t6.5 -20.5q7 -16 7 -24q0 -6 -4 -6q-2 0 -6.5 -13t-9.5 -13q-6 0 -8 -5q-2 -9 -40 -9q-12 0 -15 3q-4 4 -6 19t-4.5 27t-8.5 12q-5 0 -12 -7
q-9 -9 -22.5 -18t-17.5 -9t-4 -5q0 -4 -6 -4z" />
    <glyph glyph-name="e" unicode="e" horiz-adv-x="486" 
d="M263 377q-12 7 -35 9q-5 1 -13 1q-11 0 -19 -7q-10 -7 -10 -13q0 -3 -6 -9q-5 -5 -19 -31.5t-14 -32.5q1 -2 5.5 -0.5t10.5 5.5q13 7 24 2q10 -6 36 -8t61 -2q52 0 56 3q3 1 -1 17q-3 13 -25 36t-31 23q-8 0 -20 7zM80 155q0 5 -6.5 13.5t-6.5 13.5q0 8 -6 13q-7 7 -7 31
q0 15 4 19q3 3 3 6q3 45 10 45q2 0 6 19t6 20q5 2 10 13q21 40 42 73q5 8 13 14t21 13t17 10q23 16 54 16q11 0 19 -5q5 -3 32 -5q24 -2 31 -9q4 -6 15 -6q10 0 12 -5q2 -6 22 -8q2 0 6 -10q4 -12 26 -32q24 -22 26 -42q1 -5 1 -17q0 -39 -7 -39q-3 0 -9 -23q-6 -22 -19 -34
q-7 -6 -20 -19q-8 -8 -12 -8q-6 0 -8 -5t-79 -5q-95 0 -101 6q-5 5 -10.5 4.5t-5.5 -5.5t15 -13t24 -8t14 -5q6 -6 61 -6q68 0 109 21q9 5 18 -3q8 -6 18 -6q11 2 12 -4t-9 -10q-14 -5 -11 -12q2 -5 10 -3q1 0 2.5 0.5t2.5 0.5q9 0 9 -8q0 -4 -7 -20q-9 -20 -27 -22
q-17 -4 -17 -7q0 -4 -15 -4q-20 0 -49 -6q-39 -7 -79 -7q-26 0 -30 4q-2 4 -25 6t-45 14q-20 11 -27 11t-20 14t-13 21z" />
    <glyph glyph-name="f" unicode="f" horiz-adv-x="594" 
d="M451 554q-2 0 -6.5 13.5t-7.5 13.5q-4 0 -4 5q0 6 -15.5 19.5t-24.5 16.5q-11 4 -13 8q-2 3 -25 6t-41 3h-10q-15 -1 -19 -10q-2 -7 -6 -9q-3 -3 -8 -48q-12 -141 -12 -162l1 -24l31 -2q30 0 44 -7q12 -7 21 -7q7 0 7 -10t7 -14q7 -2 6.5 -12.5t-6.5 -13.5q-6 -2 -12 -13
q-5 -12 -17 -14q-13 -4 -15 -7q-3 -4 -21 -4q-29 0 -31 6t-9 2q-7 -3 -7 -24q0 -26 4 -82l5 -66l-15 -14q-15 -15 -31 -15q-11 0 -11 9q0 10 -5 17q-10 17 -17 139l-3 48l-17 3q-14 3 -22 8l-14 3q-14 3 -27.5 6t-13.5 4q0 3 -17 6l-18 3v21q0 21 11 33q11 13 11 15
q0 8 28 8t36 -7q5 -3 21 -5l18 -1l1 30q2 31 6 33q3 2 7 62q3 61 8 68q7 9 7 31q0 23 4 23t4 9t9 16t9 12q0 4 13 16.5t24 18.5q13 7 76 7q40 0 43 -4q2 -4 13 -4q6 0 25.5 -9t23.5 -9q6 0 6 -3q0 -4 37 -48q28 -33 28 -52q0 -9 5 -14q4 -4 6 -44q2 -26 2 -30q0 -12 -9 -26
q-12 -16 -20 -18q-10 -3 -10 -7q0 -3 -15 -3h-16v26q0 26 -4 26q-2 0 -6 24t-7 24z" />
    <glyph glyph-name="g" unicode="g" horiz-adv-x="422" 
d="M258 221q2 0 6 17.5t6 17.5q4 0 4 48q0 47 -4 51q-3 1 -7 22q-1 13 -3.5 16t-9.5 3q-11 0 -11 -3t-13 -7q-13 -2 -25 -14q-11 -11 -14 -11t-12 -16.5t-11 -17.5q-4 -2 -4 -6q0 -8 -6 -17q-5 -11 -9 -27t-6 -16q-4 0 -6 -19q0 -2 -0.5 -4t-0.5 -4q0 -14 6 -27.5t13 -15.5
q6 -2 10 -7q3 -4 32 -4t32 4q4 6 11 8q8 4 13 16q6 13 9 13zM126 11q4 0 14 -9t15 -9t5 -4q0 -3 23.5 -6.5t41.5 -3.5h5q15 1 30.5 8.5t17.5 15.5t5 8q4 0 4 63q0 64 -4 64q-3 0 -14 -11q-16 -16 -35 -21.5t-56 -5.5q-46 0 -47 6q-2 5 -12 5t-23 14t-17 28q-2 11 -6 11
q-5 0 -11.5 16.5t-6.5 28.5q0 8 4 8t6 26q2 27 7 30t7 23q6 39 23 56q6 6 6 12t3 6t8 12q7 15 16.5 28t13.5 13q3 0 16 13q13 12 23 16q12 2 12 6q0 3 16 7t17 6q2 4 12 4t21 9q10 9 25 9q13 0 21 -8q2 -2 11 -7.5t15 -10.5t6 -10q0 -7 5 -10q4 -1 4 -18q0 -15 9 -33
q8 -15 8 -31q0 -11 -1 -18q-4 -32 -8 -34q-6 -3 -6 -59q0 -23 4 -121q2 -54 2 -67q0 -59 -21 -102q-13 -26 -21 -35.5t-19 -12.5q-15 -6 -18 -9q-7 -7 -27 -7q-19 0 -23 -4q-3 -4 -40 -4q-32 0 -32 4q0 5 -12 5q-11 0 -29 9q-16 8 -21 8q-4 0 -12.5 8t-8.5 13q0 4 -9 11
q-8 6 -6 26q3 19 8 22q7 5 9 19q4 15 8 15q7 0 20.5 -7t13.5 -11q0 -3 5 -3z" />
    <glyph glyph-name="h" unicode="h" horiz-adv-x="520" 
d="M134 94q0 -2 -15 -6.5t-15 -7.5q0 -4 -5 -4q-15 0 -20 65q-4 38 -8 41t-4.5 81t-2 161t-7.5 94q-7 17 -3 23q6 9 6 84q0 49 -4 52q-2 2 -2 5q0 8 6.5 21.5t9.5 13.5t14 11q10 10 21 10q6 0 13 -5q21 -23 21 -127q0 -61 3.5 -139.5t6.5 -81.5q2 -2 6 5q6 12 15 20
q13 11 13 14q0 4 12.5 17t16.5 13q2 0 22 8.5t22 8.5q4 0 6 5q1 5 46 7l44 2l30 -23q46 -35 46 -43q0 -4 6 -10q9 -9 16.5 -41t9.5 -64q2 -42 5 -47q2 -6 2 -28q0 -52 -5 -52q-2 0 -3 -4t0.5 -9t3.5 -7q5 -2 3 -29q-1 -27 -9 -29t-23 -13q-19 -14 -40 -14q-11 0 -11 5
q-1 13 -6 157q-2 86 -6 90q-1 1 -3 10.5t-5 18t-5 8.5q-4 0 -4 7t-7 9q-6 2 -8 13q-3 15 -37 15q-12 0 -19 -1q-15 -2 -22.5 -6t-25.5 -23q-26 -28 -26 -33q0 -4 -6.5 -18.5t-6.5 -19.5q0 -8 -4 -8q-3 0 -7 -36q-4 -35 -8 -42q-4 -4 -6 -57q-1 -41 -6 -52t-21 -11
q-10 0 -10 -4z" />
    <glyph glyph-name="i" unicode="i" horiz-adv-x="242" 
d="M162 621q0 -5 6.5 -20.5t6.5 -19.5q0 -9 -12 -19.5t-26 -13.5q-15 -2 -23 -8q-8 -5 -16 3q-6 6 -18 14q-10 7 -17 23.5t-7 30.5q0 13 7 16t7 9t12 17.5t22 14.5q9 3 13 3q3 0 16 -7q12 -7 17 -21q4 -14 8 -14t4 -8zM98 493q8 15 22 15q13 0 33 -18l15 -15l1 -69
q1 -66 6.5 -137.5t9.5 -74.5q5 -3 -1 -14q-7 -11 -1 -17q6 -8 6 -25q0 -21 -7 -28t-9 -7t-11 -9t-16 -9q-6 0 -6 -4t-12 -6q-3 -1 -7 -1q-20 0 -23 60q-2 45 -7 48q-4 3 0.5 10.5t0.5 12.5q-8 8 -8 203q0 72 3 72q4 0 11 13z" />
    <glyph glyph-name="j" unicode="j" horiz-adv-x="447" 
d="M306 625q16 14 29 14q15 0 25.5 -13t13.5 -36q0 -3 0.5 -7t0.5 -5q0 -11 -14 -25q-15 -15 -25 -18q-8 -2 -15 -2q-14 0 -28.5 3.5t-14.5 7.5q0 6 -4 6t-6 15q-4 14 6 24q9 9 9 16q0 6 4 6q3 0 19 14zM331 462q0 3 4.5 4t10.5 -0.5t9 -5.5q7 -7 7 -14q0 -6 4 -6q2 0 5 -12
t6 -26l3 -13q5 -8 7 -102q2 -97 6 -97q2 0 2 -41q0 -74 -4 -108q-5 -38 -5 -42q-6 -66 -50 -92q-14 -8 -14 -11t-11 -6q-12 -2 -16 -8q-5 -6 -69 -6q-60 0 -61 6q-2 6 -9 6q-9 0 -43 29q-17 15 -20 15t-14 20t-11 25q0 6 -5 8q-6 1 -6 43q0 41 8 46q7 5 7 14q0 15 33 15
q29 0 29 -42q0 -40 27 -69q9 -10 35 -24t34 -14q9 0 11 -5q3 -4 15 -4q15 0 33 6q12 5 15 8.5t4 14.5q2 14 6 21q4 4 4 88q0 95 -5 103q-5 9 0 18q5 10 5 40q0 25 -4 25q-5 0 -5 28q0 19 -5.5 50.5t-6.5 39.5q-2 18 -6 18t-15 10t-11 14q0 3 13 3q12 0 22 13t21 13
q10 0 10 4z" />
    <glyph glyph-name="k" unicode="k" horiz-adv-x="372" 
d="M178 182q-3 0 -10 8.5t-10 8.5q-5 0 -7 4q-3 6 -13 7q-6 2 -8 1.5t-3 -3.5t1 -10q2 -20 4 -47q1 -8 1 -19q0 -14 -7 -15q-9 -2 -9 -6q0 -3 -13 -5q-13 -4 -13 -10q0 -7 -7.5 -13t-13.5 -4q-7 3 -4 20v6q0 9 -3.5 27t-3.5 25q0 8 -4 14q-5 7 -5 256v123v129q0 22 5 24t5 7
t12 12q14 8 24 8q20 0 24 -49q3 -36 3 -159t-3 -144q-2 -14 -2 -16q0 -10 5 -10t14 12q14 18 40 44q28 28 28 32q0 5 24 29t32 26q9 2 9 7q0 4 5 4q12 0 27 -13q11 -11 11 -19q0 -14 -39 -53q-34 -34 -48 -52q-11 -15 -34 -32q-22 -18 -22 -23t16.5 -20.5t22.5 -15.5
q3 0 12.5 -6t19 -13t10.5 -8q5 -2 33 -21q34 -22 34 -38q0 -3 -2 -9q-3 -7 -11 -15t-12 -8q-2 0 -14 -14q-11 -12 -23 -12q-8 0 -13 4q-10 9 -36 26.5t-29 17.5z" />
    <glyph glyph-name="l" unicode="l" horiz-adv-x="234" 
d="M95 718q4 1 10 1q23 0 23 -11q0 -4 -3 -7q-5 -5 6 -23q11 -17 14 -43q4 -27 6 -30q10 -12 10 -92v-12q0 -45 3 -51q8 -14 10 -250q0 -40 4 -40t4 -7t-4 -7q-6 0 -8 -7q-4 -12 -16 -22t-21 -10q-13 0 -16 -7q-4 -6 -13 -1q-10 6 -12 23.5t-2 98.5q0 95 -4 96t-4 14
q0 12 4 15t4 18q0 18 -5 20q-5 1 0 11q5 9 0 14q-6 6 -6 81q0 76 -5 83t-8 34q-2 27 -7 32t-5 24t5 19t5 6q0 7 11.5 17.5t19.5 12.5z" />
    <glyph glyph-name="m" unicode="m" horiz-adv-x="565" 
d="M303 146q0 -6 -6.5 -10.5t-6.5 -8.5q0 -10 -23 -10q-6 0 -8 1q-7 2 -9.5 37.5t-3.5 70.5t-4 35q-4 0 -6 19q-5 30 -26 51q-12 12 -29 12q-22 0 -25 -16q-1 -8 -7 -20q-3 -4 -7.5 -29t-6.5 -29q-4 -6 -4 -66q-1 -61 -7 -62q-5 -2 -5 -12q0 -11 -5 -11q-4 0 -9 -10t-15 -16
q-8 -4 -10 -4q-8 0 -11 17.5t-5 70.5q-4 78 -7 93q-4 16 1 16q3 0 3 33q0 44 -4 49q-5 5 -5 64q0 65 5 70t5 12q0 9 10 19q9 12 22 9q17 -3 21 -12.5t4 -53.5q0 -55 8 -55q2 0 16 12q13 11 18 11t7 6q1 4 35 4q61 0 71 -31q7 -15 8 -16q1 -2 5.5 0t8 6t3.5 7t16 19
q12 11 19.5 14t33.5 4h16q22 0 37 -8q20 -10 25 -10q8 0 20.5 -15t15.5 -28q30 -118 30 -192q0 -3 -0.5 -7.5t-0.5 -6.5q-2 -19 -12.5 -36t-18.5 -17q-6 0 -6 -5q0 -4 -6 -4q-13 0 -18 55q-7 77 -11 77q-3 0 -7 30.5t-6 30.5q-4 0 -6 12t-24 22q-21 9 -33 9q-8 0 -20 -5
q-8 -4 -10.5 -12t-6.5 -37q-5 -42 -9 -87q-3 -44 -9 -46q-5 -2 -5 -10z" />
    <glyph glyph-name="n" unicode="n" horiz-adv-x="470" 
d="M58 462q2 0 7 13.5t8 13.5q5 0 9 9q5 9 28 16q5 -4 12 -10q8 -7 9.5 -13t1.5 -28q0 -34 6 -34q4 0 12 8q20 19 34 26.5t35 9.5q54 7 55 7q13 3 21 3q7 0 17 -4q41 -23 57 -47q13 -18 20 -25q5 -3 9 -19.5t5 -19.5q13 -37 13 -129v-25q-2 -66 -4 -70q-2 -2 -6 -21
q-3 -15 -14 -24q-10 -7 -10 -13q0 -5 -11.5 -7.5t-15.5 1.5t-4 88t-4 84t-6 29t-7 31q-3 1 -7.5 16.5t-6.5 15.5q-4 0 -6 9q-4 10 -18 24q-10 10 -17 12.5t-27 2.5q-29 0 -30 -4q-3 -5 -20 -5q-16 0 -31 -16l-15 -17v-115q0 -117 -5 -118q-6 -2 -6 -13q0 -12 -9 -13
q-9 -2 -9 -9q0 -6 -6 -6q-7 0 -7 -4q0 -8 -11 -1l-4 3q-7 7 -20 193l-2.5 35t-2.5 35.5t-1 20.5q0 16 -3.5 25.5t-3.5 21.5q0 16 -7 25q-6 8 -6 22q0 10 4 10z" />
    <glyph glyph-name="o" unicode="o" horiz-adv-x="455" 
d="M269 401q0 4 -8 8q-2 1 -7 1q-9 0 -19 -3t-10 -7t-13 -4t-13 5q0 4 -12 4q-17 0 -31 -6q-14 -8 -28 -38q-7 -16 -7 -53q0 -28 5 -55q5 -30 12 -42t27 -28q18 -15 38 -15q21 0 24 7t9 7t16 10q18 15 27 22q16 12 16 19q0 6 4 6q2 0 13 15q9 12 9 25q0 8 -1 13q-2 23 -7 25
q-2 1 -6.5 18.5t-7.5 17.5t-6 11q-1 10 -14 23q-10 10 -10 14zM197 508q6 6 32 6q34 0 52 -9q16 -8 21 -8q10 0 30.5 -26.5t25.5 -43.5q4 -11 14 -23q11 -13 11 -17q0 -7 6 -15q12 -17 12 -73q0 -19 -2 -26q-8 -29 -36 -63q-17 -28 -27 -28q-4 0 -8 -9q-2 -7 -29.5 -36.5
t-31.5 -29.5q-3 0 -11 -6q-11 -9 -34.5 -15.5t-43.5 -6.5t-24 7q-4 8 -11 8q-8 0 -24.5 9.5t-28.5 20.5q-22 20 -22 41q0 5 1 8q3 11 -1 20q-14 27 -14 57q0 4 0.5 14.5t0.5 17.5q2 58 6 62q5 6 10 28q6 23 16 35q11 13 11 20q0 8 6 11q7 2 7 10t20 22t32 14q27 0 27 11
q0 6 7 13z" />
    <glyph glyph-name="p" unicode="p" horiz-adv-x="422" 
d="M343 350q2 -1 5 0t1 2q-1 1 -3 1q-4 0 -3 -3zM236 414q0 2 -21.5 7t-21.5 7q0 3 -19 3q-25 0 -28 -4q-7 -12 -7 -150v-23q2 -30 6 -36q5 -6 35 -6q25 0 28 5q1 4 11 4q5 0 14 6.5t13 6.5q15 0 29 24t14 49q0 27 4 32q5 9 -3 23q-8 16 -11 16q-3 2 -3 7t-9.5 12.5
t-19.5 10.5q-11 2 -11 6zM153 519q0 3 12 3q17 0 65 -8q36 -7 63 -22q2 -1 8.5 -3.5t9.5 -4.5q12 -5 15 -29q3 -23 8 -23q2 0 5 4q1 4 7 4q3 0 4 -4t-0.5 -9t-4.5 -7q-5 -3 9 -14q14 -12 14 -34v-8q0 -70 -9 -75q-4 -2 -4 -11q0 -15 -26 -65q-5 -11 -19.5 -28t-18.5 -17
q-1 0 -14 -11q-10 -8 -38 -19q-42 -10 -42 -13q0 -4 -32 -6l-32 -1l-3 -31q-2 -16 -2 -32q0 -12 4 -53q4 -46 8 -50t4 -12t-4 -9t-6 -20q0 -19 -6 -19q-5 0 -8 -10q-4 -16 -35 -16q-14 0 -17 10.5t-3 55.5q0 48 -7 51q-5 3 -5 22q0 20 1 37q5 113 8 276q1 111 9 120
q7 7 7 16q0 8 7 8t7 5q0 7 10 15q3 3 10.5 15.5t22.5 14.5q18 2 18 7z" />
    <glyph glyph-name="q" unicode="q" horiz-adv-x="523" 
d="M181 390q0 -4 -6.5 -8.5t-6.5 -9.5q0 -6 -4 -6q-3 0 -8 -14t-6 -15q-4 -4 -4 -10q0 -9 -6 -20t-10 -44q-1 -8 -1 -20q0 -19 8 -40q12 -28 17 -29q2 -1 6 -1q14 0 29 13q9 9 13 9q2 0 30 28l27 28l3 56q4 57 7 64q4 5 4 43v35h-14q-10 0 -22 -3q-8 -2 -32 -26.5t-24 -29.5
zM192 475q2 0 14 11t13 11q3 0 17 7q16 8 44 13q30 6 38 6q6 0 10 -4q2 -4 17 -4q43 0 48 -15q2 -10 -3 -14q-7 -5 -7 -10t-7 -5q-6 0 -6 -13v-23q0 -27 -8 -73t-15 -60q-2 -5 -7 -14t-6 -12.5t-2.5 -12t-1.5 -22.5q0 -13 -4.5 -53t-4.5 -50q1 -6 1 -29q0 -74 -5 -101
q-2 -18 -2 -29t1 -15q2 -11 5 -14t11 -4q11 -1 14 5q2 7 8 7q7 0 20 18q13 16 13 29q0 11 -1 19q-1 9 -1 24q0 28 8 28q6 0 6 14q0 20 22 20h4q14 0 29 -16q12 -13 12 -23q0 -8 -1 -14q-2 -21 -7 -26t-5 -19q0 -15 -6 -21q-7 -7 -7 -13q0 -4 -9 -13t-9 -12q0 -5 -32 -37
q-49 -50 -73 -50q-9 0 -9 -5q0 -4 -15 -4t-15 4q0 5 -11 7q-8 1 -13.5 12t-8.5 13q-4 4 -4 111q0 98 4 142q1 6 1.5 11t0.5 8t-1 3q-5 0 -20 -15q-11 -11 -34.5 -24t-31.5 -13q-5 0 -5 -4q0 -7 -33 -7q-29 0 -29 11q0 8 -8 13q-9 5 -9 22q0 12 -1.5 14.5t-9.5 2.5t-9.5 5
t-1.5 31q0 35 4 35q3 0 7 23q5 30 21 60q6 11 6 13q5 16 13 29.5t21 31.5t15 22q8 11 13 15q5 3 5 8q0 4 14.5 19t18.5 15z" />
    <glyph glyph-name="r" unicode="r" horiz-adv-x="428" 
d="M94 487q9 9 11 9q3 0 17 -6t18 -16t4 -43q0 -34 7 -34q6 0 20 14q23 23 56 39q10 6 61 6h50l14 -17q14 -15 19 -38q3 -14 3 -20q0 -7 -6 -19q-13 -26 -48 -53q-24 -18 -38 -18q-8 0 -15 5q-6 5 -2 7q6 2 13.5 19t7.5 28q0 12 -8 26q-8 12 -27 12t-28 -9t-12 -9
q-6 0 -26 -40q-12 -21 -15 -23q-4 -1 -4 -13q0 -10 -5 -15t-7 -52q-1 -46 -8 -51q-6 -3 -6 -10q0 -6 -7 -6q-5 0 -8 -7q-2 -7 -12 -7q-9 0 -9 -4q0 -5 -28 -5q-9 0 -11 2q-2 66 -3 145q-1 145 -6 150q-3 4 -3 8q0 8 7.5 16t19.5 17.5t14 11.5z" />
    <glyph glyph-name="s" unicode="s" horiz-adv-x="423" 
d="M291 433q-1 5 -8.5 6.5t-10.5 -2.5q-6 -9 -6 -28q0 -21 14 -21q7 0 8.5 3.5t2.5 15.5q2 19 0 26zM67 395q0 4 8.5 13t8.5 13q0 6 16.5 19t29.5 18q16 5 16 10q0 3 6 3t17 9q11 10 45 17q31 9 36 11q3 3 14 3q23 0 45 -9q41 -18 53 -58l8 -26l-13 -19q-24 -33 -56 -49
q-19 -9 -20 -12q-2 -4 -20 -6h-6q-14 0 -26.5 6.5t-12.5 14.5q0 4 -6.5 9t-6.5 10q0 7 7 30t10 25q2 1 8 15l6 13l-22 -2q-21 -2 -29 -10q-7 -7 -11 -7q-5 0 -20.5 -17.5t-20.5 -28.5q-9 -20 -9 -36q0 -20 12 -36q7 -11 48 -14q113 -9 141 -52q1 -2 8.5 -12.5t10.5 -15.5
t7 -14.5t5 -18.5q2 -21 9 -30q6 -6 6 -15q0 -8 -13.5 -29.5t-25.5 -31.5q-2 -2 -13.5 -11t-16.5 -14q-21 -16 -25 -17t-12 -7t-21 -7q-19 -3 -23 5q-3 7 -9 7q-2 0 -14 5t-17 5q-2 0 -6 -2q-6 -5 -12.5 2.5t-9.5 7.5q-5 0 -5 4q0 3 -10 7t-20 13q-11 11 -18 11t-20 15
t-13 22q0 2 1 6.5t1 5.5q0 5 11 3t11 6q0 24 22 24q18 0 37 -17q13 -13 17 -13q3 0 13 -10.5t14 -10.5q7 0 14 -5q6 -3 34 -11q16 -4 26 -4q23 0 23 13l-1 2v2q-1 2 -6 28q-4 18 -27 40q-24 22 -27 22t-9 6q-10 10 -80 21q-45 8 -68 29l-15 15l-1 50v29q0 23 5 24q7 2 7 9z
" />
    <glyph glyph-name="t" unicode="t" horiz-adv-x="436" 
d="M240 713q2 1 9 1q25 0 31 -6q4 -4 6 -26q1 -7 3 -23.5t2 -19.5q0 -2 0.5 -6.5t0.5 -6.5q0 -13 -3 -19q-5 -16 -8 -65q-4 -51 -7 -56q-3 -4 -3 -7q0 -6 23 -6q15 0 26 1q10 1 26 1q20 0 25.5 -5.5t7.5 -26.5q0 -2 0.5 -5.5t0.5 -4.5q0 -9 -9 -19q-10 -10 -34.5 -18
t-45.5 -8q-13 0 -16.5 -1.5t-3.5 -8.5q0 -11 4 -15q5 -5 -1 -30q-3 -13 -3 -22q0 -6 4 -24q5 -20 5 -96q0 -52 -1.5 -65t-7.5 -19q-9 -9 -15 -9q-7 0 -14 -7q-7 -5 -11.5 -1t-12.5 -1q-6 -3 -10 -3q-14 0 -16 26q0 1 -1 39.5t-1 67.5q-2 96 -2 128l-1 41h-37q-37 0 -37 4
t-5 4t-25.5 10t-23.5 14t-3 11q0 12 8 17q9 7 9 15q0 6 13.5 10.5t14.5 8.5t12 4q17 0 22 -7q3 -5 30 -7l27 -2v15q0 13 4 19q5 5 7 53q3 49 3 59t-3 31q-2 14 -2 17q0 8 8 16q9 7 9 12q0 4 8 11.5t14 9.5z" />
    <glyph glyph-name="u" unicode="u" horiz-adv-x="433" 
d="M288 464q0 14 26 14q18 0 23 -8q1 -2 1 -7.5t1 -9.5t4 -5q6 -2 6 -83q0 -83 3 -100q5 -44 22 -72q5 -8 5 -39q-1 -24 -5.5 -30t-31.5 -17q-9 -3 -14 -4t-5 0q0 4 -6 4q-7 0 -7 7q0 6 -4 6q-5 0 -5 15t-6 20q-7 5 -7 18t-6 13t-14 -14q-7 -15 -31 -36.5t-39 -28.5
q-24 -10 -49 -17q-22 -7 -39 -7q-31 0 -35 34q-4 20 -6 21q-4 4 -9.5 58t-5.5 89q0 18 2 22q5 7 5 56q0 51 7 53q5 2 5 11t6 9q7 0 9 11q2 8 12 14t21 6q6 0 13 -13q4 -12 4 -20q0 -12 -6 -55q-2 -11 -2 -49q0 -120 12 -151q4 -7 24 -5t28 8q34 27 39 47q2 11 8 15q6 2 6 23
q2 24 8 40q8 22 8 71t5 49q4 0 12 15t8 22z" />
    <glyph glyph-name="v" unicode="v" horiz-adv-x="543" 
d="M77 456q0 4 14 16t19 12q8 0 20.5 -5.5t12.5 -9.5q0 -3 19.5 -44.5t19.5 -43.5q0 -4 15.5 -23t15.5 -22q0 -5 4 -5q2 0 6.5 -11t7.5 -11q4 0 4 -9q0 -8 6 -13q6 -4 11 -21.5t7 -20.5q6 -7 6 -16t7 -9q8 0 18 11.5t13 25.5q3 12 6 12t21.5 31.5t23.5 45.5q4 9 7 11
q2 2 13 21.5t17 23.5t6 9t11 14t11 15q0 9 7 9q8 0 16 8q6 5 9 4.5t14 -6.5q15 -7 15 -15q0 -6 5 -11q4 -4 4 -11q0 -19 -21 -42q-28 -31 -40 -55q-8 -16 -27 -38q-22 -26 -22 -33q0 -6 -3 -8q-4 -1 -13.5 -15t-9.5 -18q0 -3 -14 -21q-15 -17 -28 -41q-20 -40 -30 -40
q-5 0 -14 -11q-10 -10 -24 -10h-7l-21 1l-4 25q-3 23 -8 28q-3 3 -3 11t-7 13t-7 20t-8 25q-9 11 -9 16t-4 5q-3 0 -7 11t-6 11t-7 13t-9 13q-7 0 -7 7q0 6 -3 6t-8 13.5t-7 13.5q-3 0 -3 6q0 4 -7 9.5t-7 10.5q0 11 -8 25q-9 16 -9 21q0 3 -6.5 7.5t-6.5 9.5q0 6 -4 13
t-4 9q0 4 9 13q12 10 12 14z" />
    <glyph glyph-name="w" unicode="w" horiz-adv-x="619" 
d="M288 324q0 2 -2 2q-3 0 -3 -2t3 -2q2 0 2 2zM178 314q0 9 -4 10q-4 3 -4 0l4 -11q4 -6 4 1zM428 357q3 0 7 13t6 13t6 14q2 13 14 23q7 6 13.5 20t13.5 20q10 8 10 18q0 9 17 15q17 7 21 2q4 -6 17 -6q21 0 4 -19q-8 -8 0 -16q7 -7 7 -18q0 -9 -5 -15.5t-12 -6.5
q-5 0 -5 -4t-11 -15t-11 -14q0 -5 -13 -31q-16 -31 -25 -61q-12 -37 -24 -58q-12 -22 -12 -35q0 -14 -7 -21q-6 -7 -6 -29q0 -19 -14 -36q-12 -16 -19 -16q-6 0 -8 -5t-23 -5q-17 0 -23 4.5t-6 16.5q0 6 -5 18t-5 18t2 9v1q1 1 1 2q0 12 -24 60q-4 8 -4 24q0 14 -5 14
q-4 0 -9 -17q-4 -14 -6 -16t-9 3q-5 4 -6 1q0 -3 2 -11q3 -16 -3 -26q-6 -9 -12 -39q-5 -38 -33 -50q-13 -5 -22 -5q-28 0 -28 19q0 12 -6 13q-7 2 -10 26q-2 24 -6 24q-3 0 -7 18t-20 51q-17 34 -17 40q0 4 -9 25t-9 25q0 8 -3 9q-5 3 -7 19q-4 15 -14 34q-10 17 -10 28
q0 14 18 33q20 21 38 22l18 1l11 -31q25 -68 32 -83q12 -26 29 -84q6 -14 8 -28q2 -12 7 -12q8 0 15 16q8 20 8 28q0 10 6 13q7 2 7 19q0 12 6.5 26t6.5 25q0 16 4 16q3 0 10.5 13.5t7.5 18.5t10 15t15 10q6 0 6 -6q0 -7 6 -7q7 0 7 5q0 4 6 4q7 0 7 -15q0 -14 6 -20
q5 -4 11 -30q1 -7 5 -22.5t5 -20.5q3 -16 1 -25q-2 -7 2 -10q5 -2 5 -26q0 -16 1.5 -20t7.5 -4q8 0 8 13t4 13q2 0 6.5 17.5t7.5 17.5t7 26.5t6 26.5z" />
    <glyph glyph-name="x" unicode="x" horiz-adv-x="500" 
d="M159 410q0 -3 1 -3l2 3q1 2 0 3q-3 1 -3 -3zM414 475q0 5 -4 5q-5 0 -7 -5q1 -3 4 -4q7 0 7 4zM360 467q3 0 12 13t13 13q7 0 7 4q0 3 6 6t12 3q8 0 8 -6q0 -7 13 -7q11 0 12.5 -5.5t-6.5 -12.5q-7 -6 0 -11q8 -5 8 -17q0 -13 -8 -21q-9 -12 -14 -12t-12 -12
q-8 -11 -39 -41t-35 -30q-3 0 -24.5 -23t-21.5 -26t4 -5q5 -2 5 -18t7 -16q8 0 20 -13t16 -26q5 -18 11 -22q7 -7 4 -21q-3 -16 4 -20t7.5 -12t-5.5 -14q-20 -19 -48 -20h-8q-12 0 -14.5 1.5t-4.5 10.5q-1 8 -13.5 24t-13.5 21q-2 8 -15 21t-13 19q0 5 -12 15l-12 10
l-29 -30q-13 -14 -48 -52q-30 -33 -54 -33q-4 0 -12 2q-13 5 -13 19q0 10 5 17t6 17q4 16 7 16q4 0 4 5q0 6 20 26q63 63 63 78q0 6 -14.5 25.5t-21.5 22.5q-3 2 -3 8q0 4 -6.5 8t-6.5 9q0 6 -5 6q-4 0 -9 11t-8 11q-5 0 -5 6q0 3 -13 20.5t-13 21.5q0 21 39 55q8 8 13 3
t13 0q9 6 18 -5t9 -16q0 -10 10.5 -25.5t16.5 -15.5q9 0 11 -9q2 -8 7 -8q4 0 2 -11q-2 -7 -1 -9t6 -2q7 0 16 -9t12 -18q1 -4 6.5 -6t10 -1.5t4.5 3.5q0 4 7 4q6 0 6 7t13 14q14 8 16 16q2 7 6 7q2 0 27.5 24.5t28.5 24.5q6 0 6 6q0 7 3 7z" />
    <glyph glyph-name="y" unicode="y" horiz-adv-x="485" 
d="M121 298q0 6 -6.5 11t-6.5 9q0 7 -5 12q-6 7 -20.5 34t-14.5 32q0 6 -6 9q-7 3 -7 29t9 31q10 6 18 14t12.5 7.5t11.5 -10.5q7 -11 13 -11q16 0 59 -80q9 -17 56 -69q15 -17 15 -19q0 -3 8 -11t10 -17q1 -10 10 -10q11 0 18 13q27 46 34 62q5 12 8 12t8 14t6 15q4 4 4 12
q0 10 17 24.5t28 14.5q12 0 12 -5q0 -4 6 -4q7 0 11 -12q1 -2 1 -8q0 -20 -24 -64q-1 -2 -4 -11t-6.5 -16.5t-5.5 -7.5t-6.5 -15.5t-7.5 -15.5q-4 0 -4 -6q0 -7 -6 -11q-7 -5 -9 -18t-9 -15t-7 -10q0 -6 -4 -6q-3 0 -8 -14t-6 -15q-4 -4 -4 -13q0 -8 -7.5 -19t-8.5 -18
q-4 -14 -6 -14q-4 0 -4 -5t-9 -23t-9 -30q0 -13 -6 -19q-7 -7 -7 -28t-4 -25t-6 -41q-1 -26 -3.5 -33.5t-12.5 -15.5q-22 -18 -54 -18q-12 0 -12 9t-5 9q-4 0 -4 6t4 8q4 0 6.5 29.5t9.5 74t20 72.5q5 10 10 17.5t6.5 10.5t3 9t3.5 21q4 26 -3 28q-6 1 -12 13.5t-8 14.5
q-11 11 -37 46q-10 13 -15 17q-6 4 -6 10t-4 6q-5 0 -5 7q0 5 -6 8q-7 2 -7 12z" />
    <glyph glyph-name="z" unicode="z" horiz-adv-x="555" 
d="M182 236q0 4 6.5 8t6.5 7q0 6 8 13t15 7q8 0 8 11q0 10 7 13q6 1 6 9q0 7 5 7t33.5 28.5t28.5 32.5q0 5 -51 5q-54 0 -59 4q-11 5 -37 7q-30 4 -30 7q0 2 -21 6.5t-21 6.5q-4 4 -12 4q-10 0 -16 11t6 26q12 16 18 16q7 0 7 4t9.5 8.5t16.5 2.5q28 -6 33 -10q9 -3 20 -3
q12 0 46 -6q45 -7 84 -7q20 0 24 2q10 3 43 7q10 1 22 1q10 0 10 -5t4 -6.5t7 3.5q6 10 9 2q1 -3 0 -8q-2 -12 2 -13q4 -2 4 -18q0 -17 -26 -43t-26 -31t-79 -89q-69 -72 -69 -88q0 -5 26 -5q53 0 79 7q13 4 87 4q40 0 59 -1q17 0 13 -21v-2l-1 -2q0 -5 6 -13.5t6 -14.5
q0 -8 -6.5 -16.5t-13.5 -8.5q-6 0 -6 -4q0 -2 -6.5 -5t-14.5 -5.5t-9 -3.5q-5 -5 -15 1q-8 5 -123 5t-123 -5q-7 -5 -41 -5q-24 0 -29 1.5t-7 9.5q-2 10 -2 14q0 30 18 45q13 13 13 19q0 9 5.5 19.5t12.5 12.5q8 4 8 10q0 4 11 16.5t11 15.5z" />
    <glyph glyph-name="nbsp" unicode="&#xa0;" 
 />
  </font>
</defs>
</svg>
